Ibarra Real Nova-Bold.ufo
<glyph name="period" format="1">
  <advance width="285"/>
  <unicode hex="002E"/>
  <outline>
    <contour>
      <point x="142" y="-11" type="curve" smooth="yes"/>
      <point x="188" y="-11"/>
      <point x="225" y="26"/>
      <point x="225" y="72" type="curve" smooth="yes"/>
      <point x="225" y="118"/>
      <point x="188" y="156"/>
      <point x="142" y="156" type="curve" smooth="yes"/>
      <point x="96" y="156"/>
      <point x="59" y="118"/>
      <point x="59" y="72" type="curve" smooth="yes"/>
      <point x="59" y="26"/>
      <point x="96" y="-11"/>
    </contour>
  </outline>
</glyph>
<glyph name="four" format="1">
  <advance width="576"/>
  <unicode hex="0034"/>
  <outline>
    <contour>
      <point x="192" y="0" type="line"/>
      <point x="533" y="0" type="line"/>
      <point x="533" y="22" type="line"/>
      <point x="482" y="33" type="line" smooth="yes"/>
      <point x="436" y="43"/>
      <point x="428" y="56"/>
      <point x="428" y="98" type="curve" smooth="yes"/>
      <point x="428" y="683" type="line"/>
      <point x="395" y="683" type="line"/>
      <point x="15" y="206" type="line"/>
      <point x="15" y="157" type="line"/>
      <point x="507" y="157" type="line"/>
      <point x="546" y="319" type="line"/>
      <point x="523" y="319" type="line"/>
      <point x="507" y="279" type="line" smooth="yes"/>
      <point x="497" y="255"/>
      <point x="483" y="244"/>
      <point x="459" y="244" type="curve" smooth="yes"/>
      <point x="75" y="244" type="line"/>
      <point x="77" y="221" type="line"/>
      <point x="317" y="520" type="line"/>
      <point x="297" y="529" type="line"/>
      <point x="297" y="98" type="line" smooth="yes"/>
      <point x="297" y="56"/>
      <point x="289" y="43"/>
      <point x="243" y="33" type="curve" smooth="yes"/>
      <point x="192" y="22" type="line"/>
    </contour>
  </outline>
</glyph>
<glyph name="seven" format="1">
  <advance width="520"/>
  <unicode hex="0037"/>
  <outline>
    <contour>
      <point x="105" y="0" type="line"/>
      <point x="254" y="0" type="line"/>
      <point x="475" y="573" type="line"/>
      <point x="475" y="674" type="line"/>
      <point x="62" y="674" type="line"/>
      <point x="20" y="481" type="line"/>
      <point x="43" y="481" type="line"/>
      <point x="59" y="521" type="line" smooth="yes"/>
      <point x="69" y="545"/>
      <point x="88" y="556"/>
      <point x="107" y="556" type="curve" smooth="yes"/>
      <point x="402" y="556" type="line"/>
    </contour>
  </outline>
</glyph>
<glyph name="eight" format="1">
  <advance width="565"/>
  <unicode hex="0038"/>
  <outline>
    <contour>
      <point x="276" y="-12" type="curve" smooth="yes"/>
      <point x="415" y="-12"/>
      <point x="517" y="67"/>
      <point x="517" y="181" type="curve" smooth="yes"/>
      <point x="517" y="290"/>
      <point x="417" y="357"/>
      <point x="327" y="407" type="curve" smooth="yes"/>
      <point x="259" y="445"/>
      <point x="191" y="489"/>
      <point x="191" y="548" type="curve" smooth="yes"/>
      <point x="191" y="619"/>
      <point x="241" y="643"/>
      <point x="283" y="643" type="curve" smooth="yes"/>
      <point x="343" y="643"/>
      <point x="376" y="604"/>
      <point x="376" y="531" type="curve" smooth="yes"/>
      <point x="376" y="478"/>
      <point x="357" y="413"/>
      <point x="313" y="376" type="curve"/>
      <point x="329" y="363" type="line"/>
      <point x="417" y="385"/>
      <point x="496" y="451"/>
      <point x="496" y="533" type="curve" smooth="yes"/>
      <point x="496" y="627"/>
      <point x="409" y="683"/>
      <point x="299" y="683" type="curve" smooth="yes"/>
      <point x="145" y="683"/>
      <point x="72" y="605"/>
      <point x="72" y="513" type="curve" smooth="yes"/>
      <point x="72" y="411"/>
      <point x="161" y="350"/>
      <point x="248" y="300" type="curve" smooth="yes"/>
      <point x="315" y="261"/>
      <point x="387" y="225"/>
      <point x="387" y="146" type="curve" smooth="yes"/>
      <point x="387" y="73"/>
      <point x="361" y="24"/>
      <point x="294" y="24" type="curve" smooth="yes"/>
      <point x="233" y="24"/>
      <point x="184" y="84"/>
      <point x="184" y="181" type="curve" smooth="yes"/>
      <point x="184" y="238"/>
      <point x="200" y="303"/>
      <point x="256" y="340" type="curve"/>
      <point x="231" y="357" type="line"/>
      <point x="137" y="334"/>
      <point x="46" y="254"/>
      <point x="46" y="158" type="curve" smooth="yes"/>
      <point x="46" y="49"/>
      <point x="153" y="-12"/>
    </contour>
  </outline>
</glyph>
<glyph name="greater" format="1">
  <advance width="570"/>
  <unicode hex="003E"/>
  <outline>
    <contour>
      <point x="493" y="325" type="line"/>
      <point x="492" y="343" type="line"/>
      <point x="68" y="540" type="line"/>
      <point x="68" y="479" type="line"/>
      <point x="385" y="334" type="line"/>
      <point x="68" y="188" type="line"/>
      <point x="68" y="126" type="line"/>
    </contour>
  </outline>
</glyph>
<glyph name="C" format="1">
  <advance width="739"/>
  <unicode hex="0043"/>
  <outline>
    <contour>
      <point x="435" y="-8" type="curve" smooth="yes"/>
      <point x="500" y="-8"/>
      <point x="540" y="2"/>
      <point x="577" y="12" type="curve" smooth="yes"/>
      <point x="607" y="20"/>
      <point x="640" y="29"/>
      <point x="676" y="29" type="curve" smooth="yes"/>
      <point x="683" y="29" type="line"/>
      <point x="684" y="92"/>
      <point x="695" y="160"/>
      <point x="714" y="224" type="curve"/>
      <point x="683" y="224" type="line"/>
      <point x="639" y="114"/>
      <point x="555" y="26"/>
      <point x="431" y="26" type="curve" smooth="yes"/>
      <point x="286" y="26"/>
      <point x="193" y="149"/>
      <point x="193" y="329" type="curve" smooth="yes"/>
      <point x="193" y="524"/>
      <point x="297" y="648"/>
      <point x="427" y="648" type="curve" smooth="yes"/>
      <point x="550" y="648"/>
      <point x="626" y="567"/>
      <point x="675" y="451" type="curve"/>
      <point x="702" y="451" type="line"/>
      <point x="688" y="516"/>
      <point x="675" y="580"/>
      <point x="690" y="637" type="curve"/>
      <point x="686" y="640" type="line"/>
      <point x="673" y="637"/>
      <point x="663" y="635"/>
      <point x="648" y="635" type="curve" smooth="yes"/>
      <point x="618" y="635"/>
      <point x="599" y="645"/>
      <point x="575" y="656" type="curve" smooth="yes"/>
      <point x="545" y="669"/>
      <point x="507" y="683"/>
      <point x="431" y="683" type="curve" smooth="yes"/>
      <point x="206" y="683"/>
      <point x="40" y="532"/>
      <point x="40" y="329" type="curve" smooth="yes"/>
      <point x="40" y="141"/>
      <point x="203" y="-8"/>
    </contour>
    <contour>
      <point x="450" y="-50" type="move" name="bottom"/>
    </contour>
    <contour>
      <point x="432" y="690" type="move" name="topcase"/>
    </contour>
  </outline>
</glyph>
<glyph name="F" format="1">
  <advance width="647"/>
  <unicode hex="0046"/>
  <outline>
    <contour>
      <point x="30" y="0" type="line"/>
      <point x="387" y="0" type="line"/>
      <point x="387" y="22" type="line"/>
      <point x="329" y="33" type="line" smooth="yes"/>
      <point x="283" y="42"/>
      <point x="275" y="50"/>
      <point x="275" y="92" type="curve" smooth="yes"/>
      <point x="275" y="319" type="line"/>
      <point x="405" y="319" type="line" smooth="yes"/>
      <point x="469" y="319"/>
      <point x="493" y="292"/>
      <point x="501" y="245" type="curve" smooth="yes"/>
      <point x="510" y="197" type="line"/>
      <point x="532" y="197" type="line"/>
      <point x="532" y="474" type="line"/>
      <point x="510" y="474" type="line"/>
      <point x="502" y="428" type="line" smooth="yes"/>
      <point x="494" y="380"/>
      <point x="470" y="352"/>
      <point x="403" y="352" type="curve" smooth="yes"/>
      <point x="275" y="352" type="line"/>
      <point x="275" y="640" type="line"/>
      <point x="407" y="640" type="line" smooth="yes"/>
      <point x="496" y="640"/>
      <point x="557" y="575"/>
      <point x="590" y="496" type="curve"/>
      <point x="612" y="496" type="line"/>
      <point x="605" y="539"/>
      <point x="597" y="577"/>
      <point x="597" y="618" type="curve" smooth="yes"/>
      <point x="597" y="636"/>
      <point x="598" y="654"/>
      <point x="602" y="673" type="curve"/>
      <point x="30" y="673" type="line"/>
      <point x="30" y="651" type="line"/>
      <point x="81" y="640" type="line" smooth="yes"/>
      <point x="127" y="630"/>
      <point x="135" y="623"/>
      <point x="135" y="581" type="curve" smooth="yes"/>
      <point x="135" y="92" type="line" smooth="yes"/>
      <point x="135" y="50"/>
      <point x="127" y="43"/>
      <point x="81" y="33" type="curve" smooth="yes"/>
      <point x="30" y="22" type="line"/>
    </contour>
  </outline>
</glyph>
<glyph name="G" format="1">
  <advance width="796"/>
  <unicode hex="0047"/>
  <outline>
    <contour>
      <point x="419" y="-11" type="curve" smooth="yes"/>
      <point x="484" y="-11"/>
      <point x="533" y="2"/>
      <point x="572" y="14" type="curve" smooth="yes"/>
      <point x="604" y="24"/>
      <point x="631" y="33"/>
      <point x="655" y="33" type="curve" smooth="yes"/>
      <point x="678" y="33"/>
      <point x="683" y="31"/>
      <point x="700" y="27" type="curve"/>
      <point x="703" y="29" type="line"/>
      <point x="703" y="219" type="line" smooth="yes"/>
      <point x="703" y="261"/>
      <point x="711" y="270"/>
      <point x="757" y="280" type="curve" smooth="yes"/>
      <point x="791" y="287" type="line"/>
      <point x="791" y="309" type="line"/>
      <point x="458" y="309" type="line"/>
      <point x="458" y="287" type="line"/>
      <point x="509" y="276" type="line" smooth="yes"/>
      <point x="555" y="266"/>
      <point x="563" y="259"/>
      <point x="563" y="217" type="curve" smooth="yes"/>
      <point x="563" y="66" type="line"/>
      <point x="517" y="27"/>
      <point x="465" y="24"/>
      <point x="434" y="24" type="curve" smooth="yes"/>
      <point x="257" y="24"/>
      <point x="193" y="163"/>
      <point x="193" y="335" type="curve" smooth="yes"/>
      <point x="193" y="509"/>
      <point x="277" y="649"/>
      <point x="421" y="649" type="curve" smooth="yes"/>
      <point x="534" y="649"/>
      <point x="616" y="584"/>
      <point x="658" y="468" type="curve"/>
      <point x="693" y="468" type="line"/>
      <point x="693" y="468"/>
      <point x="675" y="532"/>
      <point x="675" y="594" type="curve" smooth="yes"/>
      <point x="675" y="609"/>
      <point x="679" y="623"/>
      <point x="682" y="637" type="curve"/>
      <point x="678" y="640" type="line"/>
      <point x="666" y="637"/>
      <point x="657" y="635"/>
      <point x="643" y="635" type="curve" smooth="yes"/>
      <point x="582" y="635"/>
      <point x="556" y="683"/>
      <point x="415" y="683" type="curve" smooth="yes"/>
      <point x="206" y="683"/>
      <point x="40" y="537"/>
      <point x="40" y="335" type="curve" smooth="yes"/>
      <point x="40" y="114"/>
      <point x="227" y="-11"/>
    </contour>
    <contour>
      <point x="414" y="690" type="move" name="topcase"/>
    </contour>
  </outline>
</glyph>
<glyph name="I" format="1">
  <advance width="410"/>
  <unicode hex="0049"/>
  <outline>
    <contour>
      <point x="30" y="0" type="line"/>
      <point x="380" y="0" type="line"/>
      <point x="380" y="22" type="line"/>
      <point x="329" y="33" type="line" smooth="yes"/>
      <point x="283" y="43"/>
      <point x="275" y="50"/>
      <point x="275" y="92" type="curve" smooth="yes"/>
      <point x="275" y="581" type="line" smooth="yes"/>
      <point x="275" y="623"/>
      <point x="283" y="630"/>
      <point x="329" y="640" type="curve" smooth="yes"/>
      <point x="380" y="651" type="line"/>
      <point x="380" y="673" type="line"/>
      <point x="30" y="673" type="line"/>
      <point x="30" y="651" type="line"/>
      <point x="81" y="640" type="line" smooth="yes"/>
      <point x="127" y="630"/>
      <point x="135" y="623"/>
      <point x="135" y="581" type="curve" smooth="yes"/>
      <point x="135" y="92" type="line" smooth="yes"/>
      <point x="135" y="50"/>
      <point x="127" y="43"/>
      <point x="81" y="33" type="curve" smooth="yes"/>
      <point x="30" y="22" type="line"/>
    </contour>
    <contour>
      <point x="205" y="690" type="move" name="topcase"/>
    </contour>
  </outline>
</glyph>
<glyph name="M" format="1">
  <advance width="992"/>
  <unicode hex="004D"/>
  <outline>
    <contour>
      <point x="453" y="-6" type="line"/>
      <point x="468" y="-6" type="line"/>
      <point x="695" y="559" type="line"/>
      <point x="717" y="92" type="line" smooth="yes"/>
      <point x="719" y="50"/>
      <point x="709" y="43"/>
      <point x="663" y="33" type="curve" smooth="yes"/>
      <point x="612" y="22" type="line"/>
      <point x="612" y="0" type="line"/>
      <point x="962" y="0" type="line"/>
      <point x="962" y="22" type="line"/>
      <point x="911" y="33" type="line" smooth="yes"/>
      <point x="865" y="43"/>
      <point x="859" y="50"/>
      <point x="857" y="92" type="curve" smooth="yes"/>
      <point x="837" y="581" type="line" smooth="yes"/>
      <point x="835" y="623"/>
      <point x="845" y="630"/>
      <point x="891" y="640" type="curve" smooth="yes"/>
      <point x="942" y="651" type="line"/>
      <point x="942" y="673" type="line"/>
      <point x="700" y="673" type="line"/>
      <point x="513" y="209" type="line"/>
      <point x="302" y="672" type="line"/>
      <point x="67" y="673" type="line"/>
      <point x="67" y="651" type="line"/>
      <point x="118" y="640" type="line" smooth="yes"/>
      <point x="164" y="630"/>
      <point x="175" y="623"/>
      <point x="172" y="581" type="curve" smooth="yes"/>
      <point x="142" y="92" type="line" smooth="yes"/>
      <point x="140" y="56"/>
      <point x="124" y="43"/>
      <point x="88" y="35" type="curve" smooth="yes"/>
      <point x="30" y="22" type="line"/>
      <point x="30" y="0" type="line"/>
      <point x="305" y="0" type="line"/>
      <point x="305" y="22" type="line"/>
      <point x="232" y="37" type="line" smooth="yes"/>
      <point x="196" y="44"/>
      <point x="176" y="59"/>
      <point x="178" y="92" type="curve" smooth="yes"/>
      <point x="207" y="536" type="line"/>
    </contour>
  </outline>
</glyph>
<glyph name="N" format="1">
  <advance width="831"/>
  <unicode hex="004E"/>
  <outline>
    <contour>
      <point x="687" y="-17" type="line"/>
      <point x="704" y="-17" type="line"/>
      <point x="704" y="581" type="line" smooth="yes"/>
      <point x="704" y="617"/>
      <point x="722" y="630"/>
      <point x="758" y="638" type="curve" smooth="yes"/>
      <point x="816" y="651" type="line"/>
      <point x="816" y="673" type="line"/>
      <point x="541" y="673" type="line"/>
      <point x="541" y="651" type="line"/>
      <point x="614" y="636" type="line" smooth="yes"/>
      <point x="650" y="629"/>
      <point x="668" y="614"/>
      <point x="668" y="581" type="curve" smooth="yes"/>
      <point x="668" y="211" type="line"/>
      <point x="249" y="673" type="line"/>
      <point x="37" y="673" type="line"/>
      <point x="37" y="651" type="line"/>
      <point x="88" y="640" type="line" smooth="yes"/>
      <point x="134" y="630"/>
      <point x="142" y="623"/>
      <point x="142" y="581" type="curve" smooth="yes"/>
      <point x="142" y="92" type="line" smooth="yes"/>
      <point x="142" y="56"/>
      <point x="124" y="43"/>
      <point x="88" y="35" type="curve" smooth="yes"/>
      <point x="30" y="22" type="line"/>
      <point x="30" y="0" type="line"/>
      <point x="305" y="0" type="line"/>
      <point x="305" y="22" type="line"/>
      <point x="232" y="37" type="line" smooth="yes"/>
      <point x="196" y="44"/>
      <point x="178" y="59"/>
      <point x="178" y="92" type="curve" smooth="yes"/>
      <point x="178" y="546" type="line"/>
    </contour>
    <contour>
      <point x="416" y="690" type="move" name="topcase"/>
    </contour>
  </outline>
</glyph>
<glyph name="O" format="1">
  <advance width="796"/>
  <unicode hex="004F"/>
  <outline>
    <contour>
      <point x="397" y="-11" type="curve" smooth="yes"/>
      <point x="606" y="-11"/>
      <point x="756" y="140"/>
      <point x="756" y="342" type="curve" smooth="yes"/>
      <point x="756" y="530"/>
      <point x="606" y="683"/>
      <point x="397" y="683" type="curve" smooth="yes"/>
      <point x="190" y="683"/>
      <point x="40" y="532"/>
      <point x="40" y="329" type="curve" smooth="yes"/>
      <point x="40" y="141"/>
      <point x="190" y="-11"/>
    </contour>
    <contour>
      <point x="397" y="24" type="curve" smooth="yes"/>
      <point x="275" y="24"/>
      <point x="193" y="149"/>
      <point x="193" y="329" type="curve" smooth="yes"/>
      <point x="193" y="524"/>
      <point x="275" y="648"/>
      <point x="397" y="648" type="curve" smooth="yes"/>
      <point x="522" y="648"/>
      <point x="603" y="523"/>
      <point x="603" y="341" type="curve" smooth="yes"/>
      <point x="603" y="148"/>
      <point x="522" y="24"/>
    </contour>
    <contour>
      <point x="397" y="690" type="move" name="topcase"/>
    </contour>
  </outline>
</glyph>
<glyph name="X" format="1">
  <advance width="797"/>
  <unicode hex="0058"/>
  <outline>
    <contour>
      <point x="10" y="0" type="line"/>
      <point x="289" y="0" type="line"/>
      <point x="289" y="22" type="line"/>
      <point x="214" y="39" type="line" smooth="yes"/>
      <point x="188" y="45"/>
      <point x="183" y="63"/>
      <point x="202" y="85" type="curve" smooth="yes"/>
      <point x="360" y="276" type="line"/>
      <point x="496" y="91" type="line" smooth="yes"/>
      <point x="520" y="58"/>
      <point x="485" y="40"/>
      <point x="452" y="33" type="curve" smooth="yes"/>
      <point x="401" y="22" type="line"/>
      <point x="401" y="0" type="line"/>
      <point x="787" y="0" type="line"/>
      <point x="787" y="22" type="line"/>
      <point x="740" y="32" type="line" smooth="yes"/>
      <point x="720" y="36"/>
      <point x="705" y="45"/>
      <point x="687" y="70" type="curve" smooth="yes"/>
      <point x="467" y="370" type="line"/>
      <point x="642" y="602" type="line"/>
      <point x="658" y="621"/>
      <point x="683" y="633"/>
      <point x="709" y="638" type="curve" smooth="yes"/>
      <point x="772" y="651" type="line"/>
      <point x="772" y="673" type="line"/>
      <point x="493" y="673" type="line"/>
      <point x="493" y="651" type="line"/>
      <point x="568" y="634" type="line" smooth="yes"/>
      <point x="594" y="628"/>
      <point x="599" y="610"/>
      <point x="580" y="588" type="curve"/>
      <point x="439" y="400" type="line"/>
      <point x="298" y="597" type="line" smooth="yes"/>
      <point x="285" y="615"/>
      <point x="294" y="628"/>
      <point x="312" y="632" type="curve" smooth="yes"/>
      <point x="397" y="651" type="line"/>
      <point x="397" y="673" type="line"/>
      <point x="16" y="673" type="line"/>
      <point x="16" y="651" type="line"/>
      <point x="64" y="641" type="line" smooth="yes"/>
      <point x="91" y="635"/>
      <point x="102" y="624"/>
      <point x="114" y="607" type="curve" smooth="yes"/>
      <point x="332" y="304" type="line"/>
      <point x="140" y="71" type="line" smooth="yes"/>
      <point x="124" y="52"/>
      <point x="99" y="40"/>
      <point x="73" y="35" type="curve" smooth="yes"/>
      <point x="10" y="22" type="line"/>
    </contour>
  </outline>
</glyph>
<glyph name="Y" format="1">
  <advance width="748"/>
  <unicode hex="0059"/>
  <outline>
    <contour>
      <point x="339" y="250" type="line"/>
      <point x="382" y="257" type="line"/>
      <point x="618" y="602" type="line"/>
      <point x="627" y="625"/>
      <point x="644" y="633"/>
      <point x="670" y="638" type="curve" smooth="yes"/>
      <point x="733" y="651" type="line"/>
      <point x="733" y="673" type="line"/>
      <point x="454" y="673" type="line"/>
      <point x="454" y="651" type="line"/>
      <point x="539" y="632" type="line" smooth="yes"/>
      <point x="570" y="625"/>
      <point x="573" y="612"/>
      <point x="562" y="596" type="curve" smooth="yes"/>
      <point x="407" y="373" type="line"/>
      <point x="424" y="373" type="line"/>
      <point x="291" y="585" type="line" smooth="yes"/>
      <point x="270" y="618"/>
      <point x="292" y="633"/>
      <point x="324" y="640" type="curve" smooth="yes"/>
      <point x="375" y="651" type="line"/>
      <point x="375" y="673" type="line"/>
      <point x="15" y="673" type="line"/>
      <point x="15" y="651" type="line"/>
      <point x="68" y="639" type="line" smooth="yes"/>
      <point x="84" y="636"/>
      <point x="96" y="627"/>
      <point x="105" y="614" type="curve" smooth="yes"/>
    </contour>
    <contour>
      <point x="189" y="0" type="line"/>
      <point x="539" y="0" type="line"/>
      <point x="539" y="22" type="line"/>
      <point x="488" y="33" type="line" smooth="yes"/>
      <point x="442" y="43"/>
      <point x="434" y="50"/>
      <point x="434" y="92" type="curve" smooth="yes"/>
      <point x="434" y="361" type="line"/>
      <point x="294" y="353" type="line"/>
      <point x="294" y="92" type="line" smooth="yes"/>
      <point x="294" y="50"/>
      <point x="286" y="43"/>
      <point x="240" y="33" type="curve" smooth="yes"/>
      <point x="189" y="22" type="line"/>
    </contour>
    <contour>
      <point x="414" y="690" type="move" name="topcase"/>
    </contour>
  </outline>
</glyph>
<glyph name="a" format="1">
  <advance width="485"/>
  <unicode hex="0061"/>
  <outline>
    <contour>
      <point x="173" y="-7" type="curve" smooth="yes"/>
      <point x="226" y="-7"/>
      <point x="281" y="35"/>
      <point x="327" y="73" type="curve"/>
      <point x="299" y="96" type="line"/>
      <point x="299" y="81" type="line" smooth="yes"/>
      <point x="300" y="16"/>
      <point x="325" y="-6"/>
      <point x="365" y="-6" type="curve" smooth="yes"/>
      <point x="399" y="-6"/>
      <point x="448" y="18"/>
      <point x="475" y="34" type="curve"/>
      <point x="475" y="59" type="line"/>
      <point x="458" y="54"/>
      <point x="443" y="51"/>
      <point x="433" y="51" type="curve" smooth="yes"/>
      <point x="409" y="51"/>
      <point x="407" y="71"/>
      <point x="407" y="97" type="curve" smooth="yes"/>
      <point x="407" y="314" type="line" smooth="yes"/>
      <point x="407" y="411"/>
      <point x="326" y="452"/>
      <point x="237" y="452" type="curve" smooth="yes"/>
      <point x="150" y="452"/>
      <point x="58" y="392"/>
      <point x="58" y="318" type="curve" smooth="yes"/>
      <point x="58" y="282"/>
      <point x="79" y="261"/>
      <point x="115" y="261" type="curve" smooth="yes"/>
      <point x="150" y="261"/>
      <point x="176" y="280"/>
      <point x="176" y="312" type="curve" smooth="yes"/>
      <point x="176" y="328"/>
      <point x="168" y="342"/>
      <point x="158" y="355" type="curve" smooth="yes"/>
      <point x="151" y="364"/>
      <point x="145" y="372"/>
      <point x="145" y="382" type="curve" smooth="yes"/>
      <point x="145" y="400"/>
      <point x="169" y="419"/>
      <point x="207" y="419" type="curve" smooth="yes"/>
      <point x="263" y="419"/>
      <point x="290" y="386"/>
      <point x="290" y="328" type="curve" smooth="yes"/>
      <point x="290" y="291" type="line" smooth="yes"/>
      <point x="290" y="271"/>
      <point x="285" y="262"/>
      <point x="261" y="253" type="curve" smooth="yes"/>
      <point x="55" y="176" type="line" smooth="yes"/>
      <point x="44" y="172"/>
      <point x="40" y="164"/>
      <point x="40" y="140" type="curve" smooth="yes"/>
      <point x="40" y="62"/>
      <point x="95" y="-7"/>
    </contour>
    <contour>
      <point x="229" y="53" type="curve" smooth="yes"/>
      <point x="188" y="53"/>
      <point x="154" y="102"/>
      <point x="154" y="150" type="curve" smooth="yes"/>
      <point x="154" y="171"/>
      <point x="157" y="177"/>
      <point x="165" y="180" type="curve" smooth="yes"/>
      <point x="284" y="223" type="line"/>
      <point x="288" y="225"/>
      <point x="290" y="223"/>
      <point x="290" y="219" type="curve" smooth="yes"/>
      <point x="290" y="100" type="line" smooth="yes"/>
      <point x="290" y="87"/>
      <point x="287" y="78"/>
      <point x="279" y="72" type="curve"/>
      <point x="260" y="60"/>
      <point x="248" y="53"/>
    </contour>
    <contour>
      <point x="379" y="-50" type="move" name="bottom"/>
    </contour>
    <contour>
      <point x="245" y="470" type="move" name="top"/>
    </contour>
  </outline>
</glyph>
<glyph name="b" format="1">
  <advance width="558"/>
  <unicode hex="0062"/>
  <outline>
    <contour>
      <point x="100" y="-12" type="line"/>
      <point x="114" y="11"/>
      <point x="128" y="31"/>
      <point x="144" y="48" type="curve"/>
      <point x="179" y="16"/>
      <point x="239" y="-9"/>
      <point x="296" y="-9" type="curve" smooth="yes"/>
      <point x="458" y="-9"/>
      <point x="533" y="112"/>
      <point x="533" y="229" type="curve" smooth="yes"/>
      <point x="533" y="345"/>
      <point x="464" y="450"/>
      <point x="314" y="450" type="curve" smooth="yes"/>
      <point x="301" y="450"/>
      <point x="285" y="444"/>
      <point x="276" y="439" type="curve" smooth="yes"/>
      <point x="196" y="394" type="line"/>
      <point x="196" y="618" type="line" smooth="yes"/>
      <point x="196" y="654"/>
      <point x="201" y="687"/>
      <point x="210" y="702" type="curve"/>
      <point x="200" y="710" type="line"/>
      <point x="142" y="689"/>
      <point x="96" y="682"/>
      <point x="20" y="672" type="curve"/>
      <point x="20" y="654" type="line"/>
      <point x="52" y="646" type="line" smooth="yes"/>
      <point x="69" y="642"/>
      <point x="79" y="636"/>
      <point x="79" y="608" type="curve" smooth="yes"/>
      <point x="79" y="-9" type="line"/>
    </contour>
    <contour>
      <point x="296" y="26" type="curve" smooth="yes"/>
      <point x="243" y="26"/>
      <point x="196" y="85"/>
      <point x="196" y="155" type="curve" smooth="yes"/>
      <point x="196" y="292" type="line" smooth="yes"/>
      <point x="196" y="339"/>
      <point x="228" y="379"/>
      <point x="282" y="379" type="curve" smooth="yes"/>
      <point x="367" y="379"/>
      <point x="405" y="288"/>
      <point x="405" y="191" type="curve" smooth="yes"/>
      <point x="405" y="106"/>
      <point x="371" y="26"/>
    </contour>
  </outline>
</glyph>
<glyph name="c" format="1">
  <advance width="453"/>
  <unicode hex="0063"/>
  <outline>
    <contour>
      <point x="245" y="-8" type="curve" smooth="yes"/>
      <point x="317" y="-8"/>
      <point x="379" y="25"/>
      <point x="433" y="99" type="curve"/>
      <point x="416" y="115" type="line"/>
      <point x="376" y="81"/>
      <point x="339" y="65"/>
      <point x="298" y="65" type="curve" smooth="yes"/>
      <point x="219" y="65"/>
      <point x="153" y="126"/>
      <point x="153" y="239" type="curve" smooth="yes"/>
      <point x="153" y="347"/>
      <point x="197" y="420"/>
      <point x="258" y="420" type="curve" smooth="yes"/>
      <point x="296" y="420"/>
      <point x="325" y="404"/>
      <point x="325" y="377" type="curve" smooth="yes"/>
      <point x="325" y="367"/>
      <point x="321" y="361"/>
      <point x="318" y="354" type="curve" smooth="yes"/>
      <point x="312" y="342"/>
      <point x="310" y="332"/>
      <point x="310" y="322" type="curve" smooth="yes"/>
      <point x="310" y="288"/>
      <point x="334" y="268"/>
      <point x="369" y="268" type="curve" smooth="yes"/>
      <point x="400" y="268"/>
      <point x="425" y="287"/>
      <point x="425" y="330" type="curve" smooth="yes"/>
      <point x="425" y="402"/>
      <point x="361" y="452"/>
      <point x="257" y="452" type="curve" smooth="yes"/>
      <point x="124" y="452"/>
      <point x="25" y="355"/>
      <point x="25" y="216" type="curve" smooth="yes"/>
      <point x="25" y="91"/>
      <point x="117" y="-8"/>
    </contour>
    <contour>
      <point x="237" y="-50" type="move" name="bottom"/>
    </contour>
    <contour>
      <point x="256" y="470" type="move" name="top"/>
    </contour>
  </outline>
</glyph>
<glyph name="g" format="1">
  <advance width="528"/>
  <unicode hex="0067"/>
  <outline>
    <contour>
      <point x="237" y="-260" type="curve" smooth="yes"/>
      <point x="394" y="-260"/>
      <point x="520" y="-200"/>
      <point x="520" y="-73" type="curve" smooth="yes"/>
      <point x="520" y="33"/>
      <point x="424" y="67"/>
      <point x="328" y="67" type="curve" smooth="yes"/>
      <point x="286" y="67"/>
      <point x="228" y="63"/>
      <point x="199" y="63" type="curve" smooth="yes"/>
      <point x="166" y="63"/>
      <point x="142" y="74"/>
      <point x="142" y="95" type="curve" smooth="yes"/>
      <point x="142" y="116"/>
      <point x="179" y="131"/>
      <point x="241" y="131" type="curve" smooth="yes"/>
      <point x="351" y="131"/>
      <point x="416" y="201"/>
      <point x="416" y="285" type="curve" smooth="yes"/>
      <point x="416" y="321"/>
      <point x="408" y="344"/>
      <point x="390" y="377" type="curve"/>
      <point x="390" y="383" type="line"/>
      <point x="404" y="377"/>
      <point x="417" y="374"/>
      <point x="431" y="374" type="curve" smooth="yes"/>
      <point x="472" y="374"/>
      <point x="504" y="403"/>
      <point x="504" y="479" type="curve" smooth="yes"/>
      <point x="504" y="513"/>
      <point x="485" y="541"/>
      <point x="454" y="541" type="curve" smooth="yes"/>
      <point x="431" y="541"/>
      <point x="411" y="528"/>
      <point x="411" y="499" type="curve" smooth="yes"/>
      <point x="411" y="486"/>
      <point x="417" y="475"/>
      <point x="424" y="465" type="curve" smooth="yes"/>
      <point x="432" y="453"/>
      <point x="436" y="441"/>
      <point x="436" y="432" type="curve" smooth="yes"/>
      <point x="436" y="421"/>
      <point x="427" y="414"/>
      <point x="407" y="414" type="curve" smooth="yes"/>
      <point x="384" y="414"/>
      <point x="361" y="422"/>
      <point x="336" y="430" type="curve" smooth="yes"/>
      <point x="306" y="440"/>
      <point x="274" y="451"/>
      <point x="236" y="451" type="curve" smooth="yes"/>
      <point x="127" y="451"/>
      <point x="54" y="385"/>
      <point x="54" y="290" type="curve" smooth="yes"/>
      <point x="54" y="242"/>
      <point x="81" y="185"/>
      <point x="137" y="154" type="curve"/>
      <point x="137" y="149" type="line"/>
      <point x="114" y="118"/>
      <point x="86" y="86"/>
      <point x="49" y="60" type="curve"/>
      <point x="44" y="56"/>
      <point x="42" y="53"/>
      <point x="42" y="49" type="curve" smooth="yes"/>
      <point x="42" y="-13"/>
      <point x="110" y="-45"/>
      <point x="204" y="-45" type="curve" smooth="yes"/>
      <point x="243" y="-45"/>
      <point x="282" y="-41"/>
      <point x="319" y="-41" type="curve" smooth="yes"/>
      <point x="390" y="-41"/>
      <point x="442" y="-70"/>
      <point x="442" y="-121" type="curve" smooth="yes"/>
      <point x="442" y="-178"/>
      <point x="371" y="-210"/>
      <point x="276" y="-210" type="curve" smooth="yes"/>
      <point x="177" y="-210"/>
      <point x="129" y="-165"/>
      <point x="129" y="-121" type="curve" smooth="yes"/>
      <point x="129" y="-84"/>
      <point x="152" y="-55"/>
      <point x="216" y="-45" type="curve"/>
      <point x="182" y="-39" type="line"/>
      <point x="106" y="-39"/>
      <point x="20" y="-81"/>
      <point x="20" y="-146" type="curve" smooth="yes"/>
      <point x="20" y="-226"/>
      <point x="128" y="-260"/>
    </contour>
    <contour>
      <point x="240" y="170" type="curve" smooth="yes"/>
      <point x="197" y="170"/>
      <point x="175" y="213"/>
      <point x="175" y="299" type="curve" smooth="yes"/>
      <point x="175" y="377"/>
      <point x="197" y="414"/>
      <point x="236" y="414" type="curve" smooth="yes"/>
      <point x="279" y="414"/>
      <point x="301" y="371"/>
      <point x="301" y="288" type="curve" smooth="yes"/>
      <point x="301" y="207"/>
      <point x="279" y="170"/>
    </contour>
    <contour>
      <point x="242" y="470" type="move" name="top"/>
    </contour>
  </outline>
</glyph>
<glyph name="n" format="1">
  <advance width="570"/>
  <unicode hex="006E"/>
  <outline>
    <contour>
      <point x="325" y="0" type="line"/>
      <point x="560" y="0" type="line"/>
      <point x="560" y="17" type="line"/>
      <point x="528" y="29" type="line" smooth="yes"/>
      <point x="517" y="33"/>
      <point x="501" y="43"/>
      <point x="501" y="62" type="curve" smooth="yes"/>
      <point x="501" y="312" type="line" smooth="yes"/>
      <point x="501" y="402"/>
      <point x="446" y="451"/>
      <point x="352" y="451" type="curve" smooth="yes"/>
      <point x="344" y="451"/>
      <point x="333" y="449"/>
      <point x="327" y="445" type="curve" smooth="yes"/>
      <point x="286" y="421"/>
      <point x="245" y="399"/>
      <point x="205" y="380" type="curve"/>
      <point x="191" y="380" type="line"/>
      <point x="206" y="275" type="line"/>
      <point x="206" y="330"/>
      <point x="239" y="369"/>
      <point x="296" y="369" type="curve" smooth="yes"/>
      <point x="353" y="369"/>
      <point x="384" y="337"/>
      <point x="384" y="278" type="curve" smooth="yes"/>
      <point x="384" y="69" type="line" smooth="yes"/>
      <point x="384" y="50"/>
      <point x="375" y="36"/>
      <point x="357" y="29" type="curve" smooth="yes"/>
      <point x="325" y="17" type="line"/>
    </contour>
    <contour>
      <point x="30" y="0" type="line"/>
      <point x="265" y="0" type="line"/>
      <point x="265" y="17" type="line"/>
      <point x="233" y="29" type="line" smooth="yes"/>
      <point x="222" y="33"/>
      <point x="206" y="43"/>
      <point x="206" y="62" type="curve" smooth="yes"/>
      <point x="206" y="333" type="line"/>
      <point x="199" y="355" type="line"/>
      <point x="199" y="365" type="line" smooth="yes"/>
      <point x="199" y="401"/>
      <point x="204" y="434"/>
      <point x="213" y="449" type="curve"/>
      <point x="203" y="457" type="line"/>
      <point x="145" y="436"/>
      <point x="107" y="431"/>
      <point x="30" y="419" type="curve"/>
      <point x="30" y="401" type="line"/>
      <point x="62" y="393" type="line" smooth="yes"/>
      <point x="79" y="389"/>
      <point x="89" y="383"/>
      <point x="89" y="355" type="curve" smooth="yes"/>
      <point x="89" y="69" type="line" smooth="yes"/>
      <point x="89" y="50"/>
      <point x="80" y="36"/>
      <point x="62" y="29" type="curve" smooth="yes"/>
      <point x="30" y="17" type="line"/>
    </contour>
    <contour>
      <point x="286" y="470" type="move" name="top"/>
    </contour>
  </outline>
</glyph>
<glyph name="s" format="1">
  <advance width="411"/>
  <unicode hex="0073"/>
  <outline>
    <contour>
      <point x="203" y="-8" type="curve" smooth="yes"/>
      <point x="317" y="-8"/>
      <point x="371" y="62"/>
      <point x="371" y="131" type="curve" smooth="yes"/>
      <point x="371" y="216"/>
      <point x="321" y="252"/>
      <point x="249" y="277" type="curve" smooth="yes"/>
      <point x="173" y="303"/>
      <point x="145" y="317"/>
      <point x="145" y="366" type="curve" smooth="yes"/>
      <point x="145" y="399"/>
      <point x="169" y="422"/>
      <point x="205" y="422" type="curve" smooth="yes"/>
      <point x="259" y="422"/>
      <point x="297" y="382"/>
      <point x="317" y="307" type="curve"/>
      <point x="347" y="307" type="line"/>
      <point x="339" y="350"/>
      <point x="335" y="381"/>
      <point x="340" y="430" type="curve"/>
      <point x="314" y="430" type="line"/>
      <point x="283" y="443"/>
      <point x="260" y="452"/>
      <point x="216" y="452" type="curve" smooth="yes"/>
      <point x="118" y="452"/>
      <point x="53" y="393"/>
      <point x="53" y="328" type="curve" smooth="yes"/>
      <point x="53" y="256"/>
      <point x="87" y="217"/>
      <point x="167" y="186" type="curve" smooth="yes"/>
      <point x="255" y="152"/>
      <point x="276" y="135"/>
      <point x="276" y="87" type="curve" smooth="yes"/>
      <point x="276" y="47"/>
      <point x="249" y="23"/>
      <point x="209" y="23" type="curve" smooth="yes"/>
      <point x="138" y="23"/>
      <point x="90" y="89"/>
      <point x="78" y="168" type="curve"/>
      <point x="40" y="168" type="line"/>
      <point x="50" y="126"/>
      <point x="48" y="73"/>
      <point x="45" y="34" type="curve"/>
      <point x="76" y="17"/>
      <point x="137" y="-8"/>
    </contour>
    <contour>
      <point x="215" y="470" type="move" name="top"/>
    </contour>
  </outline>
</glyph>
<glyph name="t" format="1">
  <advance width="358"/>
  <unicode hex="0074"/>
  <outline>
    <contour>
      <point x="184" y="-8" type="curve" smooth="yes"/>
      <point x="221" y="-8"/>
      <point x="274" y="14"/>
      <point x="328" y="57" type="curve"/>
      <point x="314" y="83" type="line"/>
      <point x="289" y="68"/>
      <point x="263" y="58"/>
      <point x="244" y="58" type="curve" smooth="yes"/>
      <point x="218" y="58"/>
      <point x="201" y="70"/>
      <point x="201" y="121" type="curve" smooth="yes"/>
      <point x="201" y="409" type="line"/>
      <point x="306" y="409" type="line"/>
      <point x="316" y="442" type="line"/>
      <point x="201" y="442" type="line"/>
      <point x="201" y="588" type="line"/>
      <point x="175" y="588" type="line"/>
      <point x="158" y="497"/>
      <point x="111" y="448"/>
      <point x="20" y="436" type="curve"/>
      <point x="20" y="409" type="line"/>
      <point x="84" y="409" type="line"/>
      <point x="84" y="113" type="line" smooth="yes"/>
      <point x="84" y="31"/>
      <point x="117" y="-8"/>
    </contour>
  </outline>
</glyph>
<glyph name="u" format="1">
  <advance width="575"/>
  <unicode hex="0075"/>
  <outline>
    <contour>
      <point x="213" y="-8" type="curve" smooth="yes"/>
      <point x="217" y="-8"/>
      <point x="223" y="-6"/>
      <point x="228" y="-3" type="curve" smooth="yes"/>
      <point x="266" y="20"/>
      <point x="313" y="46"/>
      <point x="355" y="63" type="curve"/>
      <point x="369" y="63" type="line"/>
      <point x="354" y="168" type="line"/>
      <point x="354" y="113"/>
      <point x="323" y="76"/>
      <point x="269" y="76" type="curve" smooth="yes"/>
      <point x="216" y="76"/>
      <point x="186" y="109"/>
      <point x="186" y="168" type="curve" smooth="yes"/>
      <point x="186" y="367" type="line" smooth="yes"/>
      <point x="186" y="403"/>
      <point x="191" y="436"/>
      <point x="200" y="451" type="curve"/>
      <point x="190" y="459" type="line"/>
      <point x="126" y="444"/>
      <point x="90" y="439"/>
      <point x="10" y="433" type="curve"/>
      <point x="10" y="415" type="line"/>
      <point x="42" y="407" type="line" smooth="yes"/>
      <point x="59" y="403"/>
      <point x="69" y="396"/>
      <point x="69" y="368" type="curve" smooth="yes"/>
      <point x="69" y="131" type="line" smooth="yes"/>
      <point x="69" y="41"/>
      <point x="122" y="-8"/>
    </contour>
    <contour>
      <point x="383" y="-8" type="line"/>
      <point x="441" y="-1"/>
      <point x="488" y="7"/>
      <point x="545" y="9" type="curve"/>
      <point x="545" y="35" type="line"/>
      <point x="492" y="35"/>
      <point x="471" y="52"/>
      <point x="471" y="96" type="curve" smooth="yes"/>
      <point x="471" y="367" type="line" smooth="yes"/>
      <point x="471" y="403"/>
      <point x="476" y="436"/>
      <point x="485" y="451" type="curve"/>
      <point x="475" y="459" type="line"/>
      <point x="411" y="444"/>
      <point x="375" y="439"/>
      <point x="295" y="433" type="curve"/>
      <point x="295" y="415" type="line"/>
      <point x="327" y="407" type="line" smooth="yes"/>
      <point x="344" y="403"/>
      <point x="354" y="396"/>
      <point x="354" y="368" type="curve" smooth="yes"/>
      <point x="354" y="110" type="line"/>
      <point x="361" y="78" type="line"/>
      <point x="373" y="-3" type="line"/>
    </contour>
    <contour>
      <point x="262" y="470" type="move" name="top"/>
    </contour>
  </outline>
</glyph>
<glyph name="y" format="1">
  <advance width="523"/>
  <unicode hex="0079"/>
  <outline>
    <contour>
      <point x="82" y="-260" type="curve" smooth="yes"/>
      <point x="119" y="-260"/>
      <point x="162" y="-241"/>
      <point x="201" y="-155" type="curve" smooth="yes"/>
      <point x="448" y="391" type="line" smooth="yes"/>
      <point x="453" y="403"/>
      <point x="460" y="408"/>
      <point x="477" y="413" type="curve" smooth="yes"/>
      <point x="518" y="425" type="line"/>
      <point x="518" y="442" type="line"/>
      <point x="334" y="442" type="line"/>
      <point x="334" y="425" type="line"/>
      <point x="379" y="417" type="line" smooth="yes"/>
      <point x="401" y="413"/>
      <point x="405" y="404"/>
      <point x="397" y="385" type="curve" smooth="yes"/>
      <point x="278" y="111" type="line"/>
      <point x="305" y="111" type="line"/>
      <point x="203" y="376" type="line" smooth="yes"/>
      <point x="193" y="403"/>
      <point x="210" y="414"/>
      <point x="232" y="420" type="curve" smooth="yes"/>
      <point x="253" y="425" type="line"/>
      <point x="253" y="442" type="line"/>
      <point x="6" y="442" type="line"/>
      <point x="6" y="425" type="line"/>
      <point x="37" y="418" type="line" smooth="yes"/>
      <point x="53" y="414"/>
      <point x="62" y="409"/>
      <point x="67" y="397" type="curve" smooth="yes"/>
      <point x="228" y="10" type="line"/>
      <point x="165" y="-130" type="line" smooth="yes"/>
      <point x="156" y="-150"/>
      <point x="148" y="-159"/>
      <point x="137" y="-159" type="curve" smooth="yes"/>
      <point x="130" y="-159"/>
      <point x="124" y="-155"/>
      <point x="115" y="-146" type="curve" smooth="yes"/>
      <point x="105" y="-136"/>
      <point x="91" y="-128"/>
      <point x="70" y="-128" type="curve" smooth="yes"/>
      <point x="35" y="-128"/>
      <point x="11" y="-158"/>
      <point x="11" y="-194" type="curve" smooth="yes"/>
      <point x="11" y="-226"/>
      <point x="35" y="-260"/>
    </contour>
    <contour>
      <point x="295" y="470" type="move" name="top"/>
    </contour>
  </outline>
</glyph>
<glyph name="brokenbar" format="1">
  <advance width="310"/>
  <unicode hex="00A6"/>
  <outline>
    <contour>
      <point x="120" y="260" type="line"/>
      <point x="190" y="260" type="line"/>
      <point x="190" y="681" type="line"/>
      <point x="120" y="681" type="line"/>
    </contour>
    <contour>
      <point x="190" y="-283" type="line"/>
      <point x="190" y="130" type="line"/>
      <point x="120" y="130" type="line"/>
      <point x="120" y="-283" type="line"/>
    </contour>
  </outline>
</glyph>
<glyph name="section" format="1">
  <advance width="468"/>
  <unicode hex="00A7"/>
  <outline>
    <contour>
      <point x="241" y="84" type="line"/>
      <point x="361" y="84"/>
      <point x="417" y="166"/>
      <point x="417" y="248" type="curve" smooth="yes"/>
      <point x="417" y="332"/>
      <point x="358" y="383"/>
      <point x="300" y="433" type="curve" smooth="yes"/>
      <point x="240" y="484"/>
      <point x="181" y="526"/>
      <point x="181" y="603" type="curve" smooth="yes"/>
      <point x="181" y="657"/>
      <point x="226" y="680"/>
      <point x="256" y="680" type="curve" smooth="yes"/>
      <point x="284" y="680"/>
      <point x="303" y="668"/>
      <point x="303" y="649" type="curve" smooth="yes"/>
      <point x="303" y="642"/>
      <point x="302" y="633"/>
      <point x="299" y="626" type="curve" smooth="yes"/>
      <point x="297" y="617"/>
      <point x="295" y="608"/>
      <point x="295" y="598" type="curve" smooth="yes"/>
      <point x="295" y="573"/>
      <point x="321" y="548"/>
      <point x="357" y="548" type="curve" smooth="yes"/>
      <point x="391" y="548"/>
      <point x="418" y="569"/>
      <point x="418" y="608" type="curve" smooth="yes"/>
      <point x="418" y="663"/>
      <point x="363" y="712"/>
      <point x="250" y="712" type="curve" smooth="yes"/>
      <point x="147" y="712"/>
      <point x="78" y="645"/>
      <point x="78" y="569" type="curve" smooth="yes"/>
      <point x="78" y="481"/>
      <point x="141" y="427"/>
      <point x="202" y="376" type="curve" smooth="yes"/>
      <point x="262" y="325"/>
      <point x="317" y="276"/>
      <point x="317" y="196" type="curve" smooth="yes"/>
      <point x="317" y="149"/>
      <point x="290" y="121"/>
      <point x="248" y="121" type="curve"/>
    </contour>
    <contour>
      <point x="213" y="-232" type="curve" smooth="yes"/>
      <point x="328" y="-232"/>
      <point x="391" y="-154"/>
      <point x="391" y="-77" type="curve" smooth="yes"/>
      <point x="391" y="13"/>
      <point x="330" y="69"/>
      <point x="266" y="123" type="curve" smooth="yes"/>
      <point x="201" y="179"/>
      <point x="141" y="226"/>
      <point x="141" y="303" type="curve" smooth="yes"/>
      <point x="141" y="335"/>
      <point x="171" y="371"/>
      <point x="209" y="371" type="curve"/>
      <point x="213" y="401" type="line"/>
      <point x="115" y="401"/>
      <point x="50" y="342"/>
      <point x="50" y="277" type="curve" smooth="yes"/>
      <point x="50" y="180"/>
      <point x="114" y="124"/>
      <point x="177" y="67" type="curve" smooth="yes"/>
      <point x="237" y="13"/>
      <point x="295" y="-31"/>
      <point x="295" y="-111" type="curve" smooth="yes"/>
      <point x="295" y="-170"/>
      <point x="254" y="-197"/>
      <point x="213" y="-197" type="curve" smooth="yes"/>
      <point x="178" y="-197"/>
      <point x="148" y="-181"/>
      <point x="148" y="-151" type="curve" smooth="yes"/>
      <point x="148" y="-143"/>
      <point x="150" y="-136"/>
      <point x="152" y="-129" type="curve" smooth="yes"/>
      <point x="154" y="-120"/>
      <point x="157" y="-111"/>
      <point x="157" y="-102" type="curve" smooth="yes"/>
      <point x="157" y="-79"/>
      <point x="138" y="-55"/>
      <point x="107" y="-55" type="curve" smooth="yes"/>
      <point x="73" y="-55"/>
      <point x="49" y="-77"/>
      <point x="49" y="-111" type="curve" smooth="yes"/>
      <point x="49" y="-174"/>
      <point x="104" y="-232"/>
    </contour>
  </outline>
</glyph>
<glyph name="copyright" format="1">
  <advance width="755"/>
  <unicode hex="00A9"/>
  <outline>
    <contour>
      <point x="378" y="3" type="curve" smooth="yes"/>
      <point x="592" y="3"/>
      <point x="720" y="173"/>
      <point x="720" y="353" type="curve" smooth="yes"/>
      <point x="720" y="531"/>
      <point x="587" y="680"/>
      <point x="378" y="680" type="curve" smooth="yes"/>
      <point x="166" y="680"/>
      <point x="35" y="510"/>
      <point x="35" y="332" type="curve" smooth="yes"/>
      <point x="35" y="153"/>
      <point x="158" y="3"/>
    </contour>
    <contour>
      <point x="395" y="153" type="curve" smooth="yes"/>
      <point x="426" y="153"/>
      <point x="448" y="159"/>
      <point x="469" y="165" type="curve" smooth="yes"/>
      <point x="486" y="168"/>
      <point x="505" y="173"/>
      <point x="525" y="173" type="curve" smooth="yes"/>
      <point x="529" y="173" type="line"/>
      <point x="529" y="209"/>
      <point x="536" y="247"/>
      <point x="546" y="284" type="curve"/>
      <point x="520" y="284" type="line"/>
      <point x="496" y="222"/>
      <point x="457" y="186"/>
      <point x="393" y="186" type="curve" smooth="yes"/>
      <point x="323" y="186"/>
      <point x="278" y="241"/>
      <point x="278" y="342" type="curve" smooth="yes"/>
      <point x="278" y="446"/>
      <point x="330" y="510"/>
      <point x="391" y="510" type="curve" smooth="yes"/>
      <point x="454" y="510"/>
      <point x="488" y="476"/>
      <point x="515" y="411" type="curve"/>
      <point x="540" y="411" type="line"/>
      <point x="532" y="447"/>
      <point x="524" y="484"/>
      <point x="533" y="516" type="curve"/>
      <point x="531" y="517" type="line"/>
      <point x="524" y="516"/>
      <point x="518" y="514"/>
      <point x="509" y="514" type="curve" smooth="yes"/>
      <point x="492" y="514"/>
      <point x="481" y="520"/>
      <point x="469" y="526" type="curve" smooth="yes"/>
      <point x="451" y="533"/>
      <point x="430" y="541"/>
      <point x="393" y="541" type="curve" smooth="yes"/>
      <point x="272" y="541"/>
      <point x="185" y="457"/>
      <point x="185" y="342" type="curve" smooth="yes"/>
      <point x="185" y="236"/>
      <point x="270" y="153"/>
    </contour>
    <contour>
      <point x="380" y="56" type="curve" smooth="yes"/>
      <point x="220" y="56"/>
      <point x="98" y="165"/>
      <point x="98" y="336" type="curve" smooth="yes"/>
      <point x="98" y="486"/>
      <point x="218" y="628"/>
      <point x="377" y="628" type="curve" smooth="yes"/>
      <point x="536" y="628"/>
      <point x="658" y="507"/>
      <point x="658" y="348" type="curve" smooth="yes"/>
      <point x="658" y="180"/>
      <point x="537" y="56"/>
    </contour>
  </outline>
</glyph>
<glyph name="registered" format="1">
  <advance width="543"/>
  <unicode hex="00AE"/>
  <outline>
    <contour>
      <point x="271" y="178" type="curve" smooth="yes"/>
      <point x="432" y="178"/>
      <point x="528" y="305"/>
      <point x="528" y="440" type="curve" smooth="yes"/>
      <point x="528" y="573"/>
      <point x="428" y="685"/>
      <point x="271" y="685" type="curve" smooth="yes"/>
      <point x="113" y="685"/>
      <point x="15" y="557"/>
      <point x="15" y="424" type="curve" smooth="yes"/>
      <point x="15" y="291"/>
      <point x="108" y="178"/>
    </contour>
    <contour>
      <point x="274" y="222" type="curve" smooth="yes"/>
      <point x="139" y="222"/>
      <point x="69" y="327"/>
      <point x="69" y="432" type="curve" smooth="yes"/>
      <point x="69" y="537"/>
      <point x="139" y="642"/>
      <point x="271" y="642" type="curve" smooth="yes"/>
      <point x="387" y="642"/>
      <point x="477" y="553"/>
      <point x="477" y="437" type="curve" smooth="yes"/>
      <point x="477" y="313"/>
      <point x="388" y="222"/>
    </contour>
    <contour>
      <point x="391" y="313" type="curve" smooth="yes"/>
      <point x="401" y="313"/>
      <point x="410" y="314"/>
      <point x="420" y="317" type="curve"/>
      <point x="420" y="326" type="line"/>
      <point x="399" y="326"/>
      <point x="385" y="349"/>
      <point x="366" y="378" type="curve" smooth="yes"/>
      <point x="345" y="406"/>
      <point x="328" y="432"/>
      <point x="285" y="433" type="curve"/>
      <point x="285" y="437" type="line"/>
      <point x="327" y="442"/>
      <point x="362" y="466"/>
      <point x="362" y="500" type="curve" smooth="yes"/>
      <point x="362" y="544"/>
      <point x="318" y="568"/>
      <point x="243" y="568" type="curve" smooth="yes"/>
      <point x="140" y="568" type="line"/>
      <point x="140" y="556" type="line"/>
      <point x="154" y="551" type="line" smooth="yes"/>
      <point x="171" y="545"/>
      <point x="173" y="544"/>
      <point x="173" y="529" type="curve" smooth="yes"/>
      <point x="173" y="357" type="line" smooth="yes"/>
      <point x="173" y="342"/>
      <point x="170" y="344"/>
      <point x="154" y="337" type="curve" smooth="yes"/>
      <point x="140" y="331" type="line"/>
      <point x="140" y="319" type="line"/>
      <point x="269" y="319" type="line"/>
      <point x="269" y="331" type="line"/>
      <point x="256" y="337" type="line" smooth="yes"/>
      <point x="240" y="344"/>
      <point x="235" y="346"/>
      <point x="235" y="357" type="curve" smooth="yes"/>
      <point x="235" y="422" type="line"/>
      <point x="240" y="422" type="line" smooth="yes"/>
      <point x="272" y="422"/>
      <point x="287" y="396"/>
      <point x="307" y="368" type="curve" smooth="yes"/>
      <point x="334" y="329"/>
      <point x="360" y="313"/>
    </contour>
    <contour>
      <point x="235" y="445" type="line"/>
      <point x="235" y="550" type="line"/>
      <point x="239" y="550" type="line" smooth="yes"/>
      <point x="277" y="550"/>
      <point x="303" y="534"/>
      <point x="303" y="496" type="curve" smooth="yes"/>
      <point x="303" y="457"/>
      <point x="274" y="445"/>
      <point x="243" y="445" type="curve" smooth="yes"/>
    </contour>
  </outline>
</glyph>
<glyph name="degree" format="1">
  <advance width="375"/>
  <unicode hex="00B0"/>
  <outline>
    <contour>
      <point x="187" y="368" type="curve" smooth="yes"/>
      <point x="274" y="368"/>
      <point x="345" y="439"/>
      <point x="345" y="526" type="curve" smooth="yes"/>
      <point x="345" y="612"/>
      <point x="274" y="683"/>
      <point x="187" y="683" type="curve" smooth="yes"/>
      <point x="101" y="683"/>
      <point x="30" y="612"/>
      <point x="30" y="526" type="curve" smooth="yes"/>
      <point x="30" y="439"/>
      <point x="101" y="368"/>
    </contour>
    <contour>
      <point x="186" y="443" type="curve" smooth="yes"/>
      <point x="139" y="443"/>
      <point x="100" y="480"/>
      <point x="100" y="527" type="curve" smooth="yes"/>
      <point x="100" y="574"/>
      <point x="139" y="613"/>
      <point x="186" y="613" type="curve" smooth="yes"/>
      <point x="233" y="613"/>
      <point x="270" y="574"/>
      <point x="270" y="527" type="curve" smooth="yes"/>
      <point x="270" y="480"/>
      <point x="233" y="443"/>
    </contour>
  </outline>
</glyph>
<glyph name="plusminus" format="1">
  <advance width="570"/>
  <unicode hex="00B1"/>
  <outline>
    <contour>
      <point x="256" y="217" type="line"/>
      <point x="313" y="217" type="line"/>
      <point x="313" y="364" type="line"/>
      <point x="494" y="364" type="line"/>
      <point x="494" y="421" type="line"/>
      <point x="313" y="421" type="line"/>
      <point x="313" y="567" type="line"/>
      <point x="256" y="567" type="line"/>
      <point x="256" y="421" type="line"/>
      <point x="76" y="421" type="line"/>
      <point x="76" y="364" type="line"/>
      <point x="256" y="364" type="line"/>
    </contour>
    <component base="minus" yOffset="-185"/>
  </outline>
</glyph>
<glyph name="twosuperior" format="1">
  <advance width="310"/>
  <unicode hex="00B2"/>
  <outline>
    <contour>
      <point x="25" y="349" type="line"/>
      <point x="252" y="349" type="line"/>
      <point x="275" y="461" type="line"/>
      <point x="254" y="461" type="line"/>
      <point x="249" y="448" type="line" smooth="yes"/>
      <point x="242" y="430"/>
      <point x="234" y="420"/>
      <point x="215" y="420" type="curve" smooth="yes"/>
      <point x="96" y="420" type="line"/>
      <point x="77" y="377" type="line"/>
      <point x="160" y="443" type="line" smooth="yes"/>
      <point x="215" y="487"/>
      <point x="263" y="534"/>
      <point x="263" y="598" type="curve" smooth="yes"/>
      <point x="263" y="648"/>
      <point x="220" y="686"/>
      <point x="138" y="686" type="curve" smooth="yes"/>
      <point x="67" y="686"/>
      <point x="27" y="647"/>
      <point x="27" y="613" type="curve" smooth="yes"/>
      <point x="27" y="597"/>
      <point x="40" y="580"/>
      <point x="60" y="580" type="curve" smooth="yes"/>
      <point x="77" y="580"/>
      <point x="93" y="592"/>
      <point x="93" y="610" type="curve" smooth="yes"/>
      <point x="93" y="620"/>
      <point x="84" y="629"/>
      <point x="84" y="640" type="curve" smooth="yes"/>
      <point x="84" y="651"/>
      <point x="101" y="661"/>
      <point x="128" y="661" type="curve" smooth="yes"/>
      <point x="165" y="661"/>
      <point x="180" y="633"/>
      <point x="180" y="590" type="curve" smooth="yes"/>
      <point x="180" y="539"/>
      <point x="156" y="501"/>
      <point x="112" y="453" type="curve" smooth="yes"/>
      <point x="25" y="359" type="line"/>
    </contour>
  </outline>
</glyph>
<glyph name="threesuperior" format="1">
  <advance width="309"/>
  <unicode hex="00B3"/>
  <outline>
    <contour>
      <point x="133" y="344" type="curve" smooth="yes"/>
      <point x="240" y="344"/>
      <point x="284" y="395"/>
      <point x="284" y="455" type="curve" smooth="yes"/>
      <point x="284" y="502"/>
      <point x="249" y="542"/>
      <point x="182" y="548" type="curve"/>
      <point x="182" y="549" type="line"/>
      <point x="230" y="564"/>
      <point x="253" y="587"/>
      <point x="253" y="619" type="curve" smooth="yes"/>
      <point x="253" y="662"/>
      <point x="205" y="686"/>
      <point x="138" y="686" type="curve" smooth="yes"/>
      <point x="70" y="686"/>
      <point x="29" y="653"/>
      <point x="29" y="622" type="curve" smooth="yes"/>
      <point x="29" y="599"/>
      <point x="43" y="582"/>
      <point x="61" y="582" type="curve" smooth="yes"/>
      <point x="80" y="582"/>
      <point x="97" y="593"/>
      <point x="97" y="608" type="curve" smooth="yes"/>
      <point x="97" y="627"/>
      <point x="84" y="628"/>
      <point x="84" y="643" type="curve" smooth="yes"/>
      <point x="84" y="652"/>
      <point x="96" y="662"/>
      <point x="122" y="662" type="curve" smooth="yes"/>
      <point x="158" y="662"/>
      <point x="174" y="641"/>
      <point x="174" y="616" type="curve" smooth="yes"/>
      <point x="174" y="570"/>
      <point x="133" y="544"/>
      <point x="96" y="530" type="curve" smooth="yes"/>
      <point x="83" y="525" type="line"/>
      <point x="93" y="506" type="line"/>
      <point x="104" y="508"/>
      <point x="114" y="512"/>
      <point x="126" y="515" type="curve"/>
      <point x="175" y="514"/>
      <point x="193" y="487"/>
      <point x="193" y="449" type="curve" smooth="yes"/>
      <point x="193" y="399"/>
      <point x="166" y="369"/>
      <point x="122" y="369" type="curve" smooth="yes"/>
      <point x="95" y="369"/>
      <point x="72" y="377"/>
      <point x="72" y="389" type="curve" smooth="yes"/>
      <point x="72" y="401"/>
      <point x="92" y="401"/>
      <point x="92" y="422" type="curve" smooth="yes"/>
      <point x="92" y="435"/>
      <point x="82" y="453"/>
      <point x="55" y="453" type="curve" smooth="yes"/>
      <point x="34" y="453"/>
      <point x="20" y="435"/>
      <point x="20" y="413" type="curve" smooth="yes"/>
      <point x="20" y="367"/>
      <point x="72" y="344"/>
    </contour>
  </outline>
</glyph>
<glyph name="paragraph" format="1">
  <advance width="650"/>
  <unicode hex="00B6"/>
  <outline>
    <contour>
      <point x="274" y="-229" type="curve" smooth="yes"/>
      <point x="439" y="-229"/>
      <point x="510" y="-104"/>
      <point x="510" y="59" type="curve" smooth="yes"/>
      <point x="510" y="581" type="line" smooth="yes"/>
      <point x="510" y="623"/>
      <point x="518" y="630"/>
      <point x="564" y="640" type="curve" smooth="yes"/>
      <point x="615" y="651" type="line"/>
      <point x="615" y="673" type="line"/>
      <point x="336" y="673" type="line" smooth="yes"/>
      <point x="165" y="673"/>
      <point x="67" y="586"/>
      <point x="67" y="443" type="curve" smooth="yes"/>
      <point x="67" y="286"/>
      <point x="170" y="203"/>
      <point x="322" y="203" type="curve" smooth="yes"/>
      <point x="458" y="203" type="line"/>
      <point x="458" y="52" type="line" smooth="yes"/>
      <point x="458" y="-88"/>
      <point x="404" y="-190"/>
      <point x="279" y="-190" type="curve" smooth="yes"/>
      <point x="165" y="-190"/>
      <point x="93" y="-123"/>
      <point x="93" y="-17" type="curve" smooth="yes"/>
      <point x="93" y="53"/>
      <point x="123" y="80"/>
      <point x="154" y="80" type="curve" smooth="yes"/>
      <point x="163" y="80"/>
      <point x="173" y="75"/>
      <point x="173" y="62" type="curve" smooth="yes"/>
      <point x="173" y="57" type="line" smooth="yes"/>
      <point x="173" y="13"/>
      <point x="204" y="-10"/>
      <point x="237" y="-10" type="curve" smooth="yes"/>
      <point x="281" y="-10"/>
      <point x="300" y="26"/>
      <point x="300" y="58" type="curve" smooth="yes"/>
      <point x="300" y="94"/>
      <point x="266" y="132"/>
      <point x="207" y="132" type="curve" smooth="yes"/>
      <point x="110" y="132"/>
      <point x="45" y="70"/>
      <point x="45" y="-17" type="curve" smooth="yes"/>
      <point x="45" y="-124"/>
      <point x="125" y="-229"/>
    </contour>
  </outline>
</glyph>
<glyph name="Eth" format="1">
  <advance width="785"/>
  <unicode hex="00D0"/>
  <outline>
    <contour>
      <point x="30" y="323" type="line"/>
      <point x="388" y="323" type="line"/>
      <point x="388" y="378" type="line"/>
      <point x="30" y="378" type="line"/>
    </contour>
    <component base="D"/>
  </outline>
</glyph>
<glyph name="Oslash" format="1">
  <advance width="796"/>
  <unicode hex="00D8"/>
  <outline>
    <contour>
      <point x="79" y="-13" type="line"/>
      <point x="757" y="644" type="line"/>
      <point x="719" y="684" type="line"/>
      <point x="41" y="27" type="line"/>
    </contour>
    <component base="O"/>
  </outline>
</glyph>
<glyph name="Thorn" format="1">
  <advance width="648"/>
  <unicode hex="00DE"/>
  <outline>
    <contour>
      <point x="30" y="0" type="line"/>
      <point x="389" y="0" type="line"/>
      <point x="389" y="22" type="line"/>
      <point x="329" y="33" type="line" smooth="yes"/>
      <point x="283" y="41"/>
      <point x="275" y="50"/>
      <point x="275" y="92" type="curve" smooth="yes"/>
      <point x="275" y="515" type="line"/>
      <point x="311" y="515" type="line" smooth="yes"/>
      <point x="424" y="515"/>
      <point x="493" y="466"/>
      <point x="493" y="339" type="curve" smooth="yes"/>
      <point x="493" y="208"/>
      <point x="414" y="162"/>
      <point x="322" y="156" type="curve"/>
      <point x="323" y="149" type="line"/>
      <point x="433" y="119"/>
      <point x="633" y="178"/>
      <point x="633" y="342" type="curve" smooth="yes"/>
      <point x="633" y="464"/>
      <point x="525" y="548"/>
      <point x="342" y="548" type="curve" smooth="yes"/>
      <point x="275" y="548" type="line"/>
      <point x="275" y="581" type="line" smooth="yes"/>
      <point x="275" y="623"/>
      <point x="283" y="630"/>
      <point x="329" y="640" type="curve" smooth="yes"/>
      <point x="380" y="651" type="line"/>
      <point x="380" y="673" type="line"/>
      <point x="30" y="673" type="line"/>
      <point x="30" y="651" type="line"/>
      <point x="81" y="640" type="line" smooth="yes"/>
      <point x="127" y="630"/>
      <point x="135" y="623"/>
      <point x="135" y="581" type="curve" smooth="yes"/>
      <point x="135" y="92" type="line" smooth="yes"/>
      <point x="135" y="50"/>
      <point x="127" y="43"/>
      <point x="81" y="33" type="curve" smooth="yes"/>
      <point x="30" y="22" type="line"/>
    </contour>
  </outline>
</glyph>
<glyph name="eth" format="1">
  <advance width="547"/>
  <unicode hex="00F0"/>
  <outline>
    <contour>
      <point x="255" y="465" type="line"/>
      <point x="542" y="593" type="line"/>
      <point x="524" y="630" type="line"/>
      <point x="237" y="503" type="line"/>
    </contour>
    <component base="partialdiff"/>
  </outline>
</glyph>
<glyph name="oslash" format="1">
  <advance width="501"/>
  <unicode hex="00F8"/>
  <outline>
    <contour>
      <point x="58" y="-11" type="line"/>
      <point x="475" y="419" type="line"/>
      <point x="440" y="451" type="line"/>
      <point x="25" y="21" type="line"/>
    </contour>
    <component base="o"/>
  </outline>
</glyph>
<glyph name="thorn" format="1">
  <advance width="568"/>
  <unicode hex="00FE"/>
  <outline>
    <contour>
      <point x="30" y="-250" type="line"/>
      <point x="275" y="-250" type="line"/>
      <point x="275" y="-233" type="line"/>
      <point x="238" y="-221" type="line" smooth="yes"/>
      <point x="216" y="-213"/>
      <point x="206" y="-203"/>
      <point x="206" y="-188" type="curve" smooth="yes"/>
      <point x="206" y="16" type="line"/>
      <point x="234" y="2"/>
      <point x="276" y="-9"/>
      <point x="320" y="-9" type="curve" smooth="yes"/>
      <point x="472" y="-9"/>
      <point x="543" y="113"/>
      <point x="543" y="229" type="curve" smooth="yes"/>
      <point x="543" y="343"/>
      <point x="471" y="451"/>
      <point x="322" y="451" type="curve" smooth="yes"/>
      <point x="309" y="451"/>
      <point x="294" y="445"/>
      <point x="284" y="439" type="curve" smooth="yes"/>
      <point x="208" y="394" type="line"/>
      <point x="206" y="394" type="line"/>
      <point x="206" y="618" type="line" smooth="yes"/>
      <point x="206" y="654"/>
      <point x="211" y="687"/>
      <point x="220" y="702" type="curve"/>
      <point x="210" y="710" type="line"/>
      <point x="152" y="689"/>
      <point x="106" y="682"/>
      <point x="30" y="672" type="curve"/>
      <point x="30" y="654" type="line"/>
      <point x="62" y="646" type="line" smooth="yes"/>
      <point x="79" y="642"/>
      <point x="89" y="636"/>
      <point x="89" y="608" type="curve" smooth="yes"/>
      <point x="89" y="-181" type="line" smooth="yes"/>
      <point x="89" y="-202"/>
      <point x="82" y="-213"/>
      <point x="62" y="-221" type="curve" smooth="yes"/>
      <point x="30" y="-233" type="line"/>
    </contour>
    <contour>
      <point x="306" y="26" type="curve" smooth="yes"/>
      <point x="253" y="26"/>
      <point x="206" y="85"/>
      <point x="206" y="155" type="curve" smooth="yes"/>
      <point x="206" y="292" type="line" smooth="yes"/>
      <point x="206" y="339"/>
      <point x="238" y="379"/>
      <point x="292" y="379" type="curve" smooth="yes"/>
      <point x="377" y="379"/>
      <point x="415" y="288"/>
      <point x="415" y="191" type="curve" smooth="yes"/>
      <point x="415" y="106"/>
      <point x="381" y="26"/>
    </contour>
  </outline>
</glyph>
<glyph name="Hbar" format="1">
  <advance width="876"/>
  <unicode hex="0126"/>
  <outline>
    <contour>
      <point x="65" y="478" type="line"/>
      <point x="811" y="478" type="line"/>
      <point x="811" y="533" type="line"/>
      <point x="65" y="533" type="line"/>
    </contour>
    <component base="H"/>
  </outline>
</glyph>
<glyph name="lslash" format="1">
  <advance width="280"/>
  <unicode hex="0142"/>
  <outline>
    <contour>
      <point x="30" y="246" type="line"/>
      <point x="265" y="332" type="line"/>
      <point x="265" y="388" type="line"/>
      <point x="30" y="302" type="line"/>
    </contour>
    <component base="l"/>
  </outline>
</glyph>
<glyph name="Eng" format="1">
  <advance width="836"/>
  <unicode hex="014A"/>
  <outline>
    <contour>
      <point x="581" y="-228" type="curve" smooth="yes"/>
      <point x="636" y="-228"/>
      <point x="660" y="-202"/>
      <point x="676" y="-182" type="curve" smooth="yes"/>
      <point x="687" y="-168"/>
      <point x="694" y="-157"/>
      <point x="704" y="-157" type="curve"/>
      <point x="704" y="581" type="line" smooth="yes"/>
      <point x="704" y="617"/>
      <point x="722" y="630"/>
      <point x="758" y="638" type="curve" smooth="yes"/>
      <point x="816" y="651" type="line"/>
      <point x="816" y="673" type="line"/>
      <point x="541" y="673" type="line"/>
      <point x="541" y="651" type="line"/>
      <point x="614" y="636" type="line" smooth="yes"/>
      <point x="650" y="629"/>
      <point x="668" y="614"/>
      <point x="668" y="581" type="curve" smooth="yes"/>
      <point x="668" y="211" type="line"/>
      <point x="249" y="673" type="line"/>
      <point x="37" y="673" type="line"/>
      <point x="37" y="651" type="line"/>
      <point x="88" y="640" type="line" smooth="yes"/>
      <point x="134" y="630"/>
      <point x="142" y="623"/>
      <point x="142" y="581" type="curve" smooth="yes"/>
      <point x="142" y="92" type="line" smooth="yes"/>
      <point x="142" y="56"/>
      <point x="124" y="43"/>
      <point x="88" y="35" type="curve" smooth="yes"/>
      <point x="30" y="22" type="line"/>
      <point x="30" y="0" type="line"/>
      <point x="305" y="0" type="line"/>
      <point x="305" y="22" type="line"/>
      <point x="232" y="37" type="line" smooth="yes"/>
      <point x="196" y="44"/>
      <point x="178" y="59"/>
      <point x="178" y="92" type="curve" smooth="yes"/>
      <point x="178" y="546" type="line"/>
      <point x="668" y="4" type="line"/>
      <point x="668" y="-77" type="line" smooth="yes"/>
      <point x="668" y="-162"/>
      <point x="629" y="-191"/>
      <point x="579" y="-191" type="curve" smooth="yes"/>
      <point x="555" y="-191"/>
      <point x="536" y="-181"/>
      <point x="536" y="-174" type="curve" smooth="yes"/>
      <point x="536" y="-171"/>
      <point x="539" y="-169"/>
      <point x="543" y="-169" type="curve" smooth="yes"/>
      <point x="578" y="-169"/>
      <point x="604" y="-137"/>
      <point x="604" y="-105" type="curve" smooth="yes"/>
      <point x="604" y="-70"/>
      <point x="584" y="-36"/>
      <point x="533" y="-36" type="curve" smooth="yes"/>
      <point x="493" y="-36"/>
      <point x="454" y="-64"/>
      <point x="454" y="-120" type="curve" smooth="yes"/>
      <point x="454" y="-168"/>
      <point x="501" y="-228"/>
    </contour>
  </outline>
</glyph>
<glyph name="eng" format="1">
  <advance width="546"/>
  <unicode hex="014B"/>
  <outline>
    <contour>
      <point x="307" y="-260" type="curve" smooth="yes"/>
      <point x="397" y="-260"/>
      <point x="441" y="-203"/>
      <point x="481" y="-109" type="curve" smooth="yes"/>
      <point x="485" y="-99"/>
      <point x="494" y="-95"/>
      <point x="501" y="-95" type="curve"/>
      <point x="501" y="312" type="line" smooth="yes"/>
      <point x="501" y="402"/>
      <point x="446" y="451"/>
      <point x="352" y="451" type="curve" smooth="yes"/>
      <point x="344" y="451"/>
      <point x="333" y="449"/>
      <point x="327" y="445" type="curve" smooth="yes"/>
      <point x="286" y="421"/>
      <point x="245" y="399"/>
      <point x="205" y="380" type="curve"/>
      <point x="191" y="380" type="line"/>
      <point x="206" y="275" type="line"/>
      <point x="206" y="330"/>
      <point x="239" y="369"/>
      <point x="296" y="369" type="curve" smooth="yes"/>
      <point x="353" y="369"/>
      <point x="384" y="337"/>
      <point x="384" y="278" type="curve" smooth="yes"/>
      <point x="384" y="-107" type="line" smooth="yes"/>
      <point x="384" y="-200"/>
      <point x="363" y="-221"/>
      <point x="348" y="-221" type="curve" smooth="yes"/>
      <point x="344" y="-221"/>
      <point x="342" y="-218"/>
      <point x="342" y="-212" type="curve" smooth="yes"/>
      <point x="342" y="-206"/>
      <point x="345" y="-201"/>
      <point x="345" y="-194" type="curve" smooth="yes"/>
      <point x="345" y="-160"/>
      <point x="320" y="-134"/>
      <point x="284" y="-134" type="curve" smooth="yes"/>
      <point x="253" y="-134"/>
      <point x="222" y="-157"/>
      <point x="222" y="-197" type="curve" smooth="yes"/>
      <point x="222" y="-234"/>
      <point x="252" y="-260"/>
    </contour>
    <contour>
      <point x="30" y="0" type="line"/>
      <point x="265" y="0" type="line"/>
      <point x="265" y="17" type="line"/>
      <point x="233" y="29" type="line" smooth="yes"/>
      <point x="222" y="33"/>
      <point x="206" y="43"/>
      <point x="206" y="62" type="curve" smooth="yes"/>
      <point x="206" y="333" type="line"/>
      <point x="199" y="355" type="line"/>
      <point x="199" y="365" type="line" smooth="yes"/>
      <point x="199" y="401"/>
      <point x="204" y="434"/>
      <point x="213" y="449" type="curve"/>
      <point x="203" y="457" type="line"/>
      <point x="145" y="436"/>
      <point x="107" y="431"/>
      <point x="30" y="419" type="curve"/>
      <point x="30" y="401" type="line"/>
      <point x="62" y="393" type="line" smooth="yes"/>
      <point x="79" y="389"/>
      <point x="89" y="383"/>
      <point x="89" y="355" type="curve" smooth="yes"/>
      <point x="89" y="69" type="line" smooth="yes"/>
      <point x="89" y="50"/>
      <point x="80" y="36"/>
      <point x="62" y="29" type="curve" smooth="yes"/>
      <point x="30" y="17" type="line"/>
    </contour>
  </outline>
</glyph>
<glyph name="Tbar" format="1">
  <advance width="704"/>
  <unicode hex="0166"/>
  <outline>
    <contour>
      <point x="157" y="312" type="line"/>
      <point x="547" y="312" type="line"/>
      <point x="547" y="367" type="line"/>
      <point x="157" y="367" type="line"/>
    </contour>
    <component base="T"/>
  </outline>
</glyph>
<glyph name="tbar" format="1">
  <advance width="372"/>
  <unicode hex="0167"/>
  <outline>
    <contour>
      <point x="27" y="214" type="line"/>
      <point x="322" y="214" type="line"/>
      <point x="322" y="269" type="line"/>
      <point x="27" y="269" type="line"/>
    </contour>
    <component base="t" xOffset="7"/>
  </outline>
</glyph>
<glyph name="longs" format="1">
  <advance width="332"/>
  <unicode hex="017F"/>
  <outline>
    <contour>
      <point x="30" y="0" type="line"/>
      <point x="282" y="0" type="line"/>
      <point x="282" y="17" type="line"/>
      <point x="239" y="29" type="line" smooth="yes"/>
      <point x="216" y="35"/>
      <point x="207" y="47"/>
      <point x="207" y="62" type="curve"/>
      <point x="207" y="484" type="line"/>
      <point x="207" y="630"/>
      <point x="234" y="684"/>
      <point x="292" y="684" type="curve" smooth="yes"/>
      <point x="310" y="684"/>
      <point x="329" y="680"/>
      <point x="329" y="667" type="curve" smooth="yes"/>
      <point x="329" y="660"/>
      <point x="325" y="656"/>
      <point x="321" y="650" type="curve" smooth="yes"/>
      <point x="317" y="644"/>
      <point x="312" y="636"/>
      <point x="312" y="623" type="curve" smooth="yes"/>
      <point x="312" y="587"/>
      <point x="338" y="567"/>
      <point x="372" y="567" type="curve" smooth="yes"/>
      <point x="402" y="567"/>
      <point x="427" y="588"/>
      <point x="427" y="627" type="curve" smooth="yes"/>
      <point x="427" y="679"/>
      <point x="374" y="711"/>
      <point x="299" y="711" type="curve" smooth="yes"/>
      <point x="174" y="711"/>
      <point x="89" y="658"/>
      <point x="89" y="489" type="curve" smooth="yes"/>
      <point x="89" y="442" type="line"/>
      <point x="25" y="442" type="line"/>
      <point x="25" y="409" type="line"/>
      <point x="89" y="409" type="line"/>
      <point x="89" y="69" type="line" smooth="yes"/>
      <point x="89" y="48"/>
      <point x="82" y="37"/>
      <point x="62" y="29" type="curve" smooth="yes"/>
      <point x="30" y="17" type="line"/>
    </contour>
  </outline>
</glyph>
<glyph name="jdotless" format="1">
  <advance width="268"/>
  <unicode hex="0237"/>
  <outline>
    <contour>
      <point x="5" y="-260" type="curve" smooth="yes"/>
      <point x="95" y="-260"/>
      <point x="139" y="-203"/>
      <point x="179" y="-109" type="curve" smooth="yes"/>
      <point x="183" y="-99"/>
      <point x="192" y="-95"/>
      <point x="199" y="-95" type="curve"/>
      <point x="199" y="365" type="line" smooth="yes"/>
      <point x="199" y="401"/>
      <point x="204" y="434"/>
      <point x="213" y="449" type="curve"/>
      <point x="203" y="457" type="line"/>
      <point x="145" y="436"/>
      <point x="99" y="429"/>
      <point x="23" y="419" type="curve"/>
      <point x="23" y="401" type="line"/>
      <point x="55" y="393" type="line" smooth="yes"/>
      <point x="72" y="389"/>
      <point x="82" y="383"/>
      <point x="82" y="355" type="curve" smooth="yes"/>
      <point x="82" y="-107" type="line" smooth="yes"/>
      <point x="82" y="-200"/>
      <point x="61" y="-221"/>
      <point x="46" y="-221" type="curve" smooth="yes"/>
      <point x="42" y="-221"/>
      <point x="40" y="-218"/>
      <point x="40" y="-212" type="curve" smooth="yes"/>
      <point x="40" y="-206"/>
      <point x="43" y="-201"/>
      <point x="43" y="-194" type="curve" smooth="yes"/>
      <point x="43" y="-160"/>
      <point x="18" y="-134"/>
      <point x="-18" y="-134" type="curve" smooth="yes"/>
      <point x="-49" y="-134"/>
      <point x="-80" y="-157"/>
      <point x="-80" y="-197" type="curve" smooth="yes"/>
      <point x="-80" y="-234"/>
      <point x="-50" y="-260"/>
    </contour>
    <contour>
      <point x="139" y="470" type="move" name="top"/>
    </contour>
  </outline>
</glyph>
<glyph name="uni02C9" format="1">
  <advance width="570"/>
  <unicode hex="02C9"/>
  <outline>
    <contour>
      <point x="117" y="590" type="line"/>
      <point x="453" y="590" type="line"/>
      <point x="453" y="645" type="line"/>
      <point x="117" y="645" type="line"/>
    </contour>
    <contour>
      <point x="262" y="470" type="move" name="_top"/>
    </contour>
  </outline>
</glyph>
<glyph name="gravecomb" format="1">
  <advance width="570"/>
  <unicode hex="0300"/>
  <outline>
    <component base="acute" xScale="-1" xyScale="0.052" yxScale="0.052" xOffset="537" yOffset="-17"/>
    <contour>
      <point x="294" y="470" type="move" name="_top"/>
    </contour>
  </outline>
</glyph>
<glyph name="circumflexcomb" format="1">
  <advance width="570"/>
  <unicode hex="0302"/>
  <outline>
    <component base="caroncomb" xScale="-1" yScale="-1" xOffset="570" yOffset="1246"/>
    <contour>
      <point x="285" y="470" type="move" name="_top"/>
    </contour>
  </outline>
</glyph>
<glyph name="tildecomb" format="1">
  <advance width="570"/>
  <unicode hex="0303"/>
  <outline>
    <contour>
      <point x="148" y="513" type="line"/>
      <point x="172" y="534" type="line" smooth="yes"/>
      <point x="182" y="543"/>
      <point x="187" y="544"/>
      <point x="199" y="545" type="curve" smooth="yes"/>
      <point x="378" y="559" type="line"/>
      <point x="445" y="659" type="line"/>
      <point x="423" y="677" type="line"/>
      <point x="399" y="656" type="line" smooth="yes"/>
      <point x="389" y="647"/>
      <point x="384" y="646"/>
      <point x="372" y="645" type="curve" smooth="yes"/>
      <point x="192" y="629" type="line"/>
      <point x="126" y="531" type="line"/>
    </contour>
    <contour>
      <point x="285" y="470" type="move" name="_top"/>
    </contour>
  </outline>
</glyph>
<glyph name="macroncomb" format="1">
  <advance width="570"/>
  <unicode hex="0304"/>
  <outline>
    <component base="uni02C9"/>
    <contour>
      <point x="285" y="470" type="move" name="_top"/>
    </contour>
  </outline>
</glyph>
<glyph name="dotaccentcomb" format="1">
  <advance width="570"/>
  <unicode hex="0307"/>
  <outline>
    <contour>
      <point x="285" y="545" type="curve" smooth="yes"/>
      <point x="326" y="545"/>
      <point x="359" y="578"/>
      <point x="359" y="619" type="curve" smooth="yes"/>
      <point x="359" y="660"/>
      <point x="326" y="693"/>
      <point x="285" y="693" type="curve" smooth="yes"/>
      <point x="244" y="693"/>
      <point x="211" y="660"/>
      <point x="211" y="619" type="curve" smooth="yes"/>
      <point x="211" y="578"/>
      <point x="244" y="545"/>
    </contour>
    <contour>
      <point x="285" y="470" type="move" name="_top"/>
    </contour>
  </outline>
</glyph>
<glyph name="caroncomb" format="1">
  <advance width="570"/>
  <unicode hex="030C"/>
  <outline>
    <contour>
      <point x="264" y="527" type="line"/>
      <point x="306" y="527" type="line"/>
      <point x="444" y="708" type="line"/>
      <point x="426" y="724" type="line"/>
      <point x="285" y="627" type="line"/>
      <point x="144" y="724" type="line"/>
      <point x="126" y="708" type="line"/>
    </contour>
    <contour>
      <point x="285" y="470" type="move" name="_top"/>
    </contour>
  </outline>
</glyph>
<glyph name="Omega" format="1">
  <advance width="840"/>
  <unicode hex="03A9"/>
  <outline>
    <contour>
      <point x="58" y="0" type="line"/>
      <point x="356" y="0" type="line"/>
      <point x="384" y="29" type="line"/>
      <point x="300" y="117"/>
      <point x="243" y="215"/>
      <point x="243" y="373" type="curve" smooth="yes"/>
      <point x="243" y="531"/>
      <point x="305" y="646"/>
      <point x="420" y="646" type="curve" smooth="yes"/>
      <point x="535" y="646"/>
      <point x="597" y="531"/>
      <point x="597" y="373" type="curve" smooth="yes"/>
      <point x="597" y="215"/>
      <point x="540" y="117"/>
      <point x="456" y="29" type="curve"/>
      <point x="484" y="0" type="line"/>
      <point x="782" y="0" type="line"/>
      <point x="815" y="245" type="line"/>
      <point x="793" y="245" type="line"/>
      <point x="781" y="194" type="line" smooth="yes"/>
      <point x="770" y="148"/>
      <point x="761" y="140"/>
      <point x="719" y="140" type="curve" smooth="yes"/>
      <point x="598" y="140" type="line"/>
      <point x="691" y="193"/>
      <point x="749" y="322"/>
      <point x="749" y="406" type="curve" smooth="yes"/>
      <point x="749" y="560"/>
      <point x="614" y="683"/>
      <point x="420" y="683" type="curve" smooth="yes"/>
      <point x="226" y="683"/>
      <point x="91" y="560"/>
      <point x="91" y="406" type="curve" smooth="yes"/>
      <point x="91" y="322"/>
      <point x="149" y="193"/>
      <point x="242" y="140" type="curve"/>
      <point x="121" y="140" type="line" smooth="yes"/>
      <point x="79" y="140"/>
      <point x="70" y="148"/>
      <point x="59" y="194" type="curve" smooth="yes"/>
      <point x="47" y="245" type="line"/>
      <point x="25" y="245" type="line"/>
    </contour>
  </outline>
</glyph>
<glyph name="pi" format="1">
  <advance width="591"/>
  <unicode hex="03C0"/>
  <outline>
    <contour>
      <point x="42" y="272" type="line"/>
      <point x="99" y="318"/>
      <point x="136" y="329"/>
      <point x="195" y="329" type="curve" smooth="yes"/>
      <point x="533" y="329" type="line"/>
      <point x="561" y="500" type="line"/>
      <point x="531" y="500" type="line"/>
      <point x="519" y="468" type="line" smooth="yes"/>
      <point x="515" y="457"/>
      <point x="505" y="441"/>
      <point x="486" y="441" type="curve" smooth="yes"/>
      <point x="213" y="441" type="line" smooth="yes"/>
      <point x="142" y="441"/>
      <point x="68" y="396"/>
      <point x="20" y="299" type="curve"/>
    </contour>
    <contour>
      <point x="83" y="0" type="line"/>
      <point x="197" y="0" type="line"/>
      <point x="243" y="86"/>
      <point x="246" y="270"/>
      <point x="250" y="390" type="curve"/>
      <point x="181" y="410" type="line"/>
      <point x="167" y="236"/>
      <point x="137" y="107"/>
      <point x="66" y="54" type="curve"/>
    </contour>
    <contour>
      <point x="406" y="-7" type="curve" smooth="yes"/>
      <point x="443" y="-7"/>
      <point x="514" y="15"/>
      <point x="543" y="34" type="curve"/>
      <point x="543" y="69" type="line"/>
      <point x="524" y="63"/>
      <point x="507" y="60"/>
      <point x="496" y="60" type="curve" smooth="yes"/>
      <point x="460" y="60"/>
      <point x="439" y="95"/>
      <point x="439" y="234" type="curve" smooth="yes"/>
      <point x="439" y="276"/>
      <point x="442" y="327"/>
      <point x="449" y="389" type="curve"/>
      <point x="372" y="378" type="line"/>
      <point x="360" y="276"/>
      <point x="352" y="189"/>
      <point x="352" y="132" type="curve" smooth="yes"/>
      <point x="352" y="35"/>
      <point x="361" y="-7"/>
    </contour>
  </outline>
</glyph>
<glyph name="endash" format="1">
  <advance width="570"/>
  <unicode hex="2013"/>
  <outline>
    <contour>
      <point x="0" y="223" type="line"/>
      <point x="570" y="223" type="line"/>
      <point x="570" y="278" type="line"/>
      <point x="0" y="278" type="line"/>
    </contour>
  </outline>
</glyph>
<glyph name="perthousand" format="1">
  <advance width="1002"/>
  <unicode hex="2030"/>
  <outline>
    <contour>
      <point x="831" y="-11" type="curve" smooth="yes"/>
      <point x="931" y="-11"/>
      <point x="977" y="69"/>
      <point x="977" y="162" type="curve" smooth="yes"/>
      <point x="977" y="254"/>
      <point x="931" y="330"/>
      <point x="831" y="330" type="curve" smooth="yes"/>
      <point x="732" y="330"/>
      <point x="685" y="254"/>
      <point x="685" y="162" type="curve" smooth="yes"/>
      <point x="685" y="69"/>
      <point x="732" y="-11"/>
    </contour>
    <contour>
      <point x="831" y="16" type="curve" smooth="yes"/>
      <point x="784" y="16"/>
      <point x="778" y="82"/>
      <point x="778" y="162" type="curve" smooth="yes"/>
      <point x="778" y="240"/>
      <point x="785" y="302"/>
      <point x="831" y="302" type="curve" smooth="yes"/>
      <point x="878" y="302"/>
      <point x="884" y="240"/>
      <point x="884" y="162" type="curve" smooth="yes"/>
      <point x="884" y="82"/>
      <point x="878" y="16"/>
    </contour>
    <component base="percent"/>
  </outline>
</glyph>
<glyph name="Euro" format="1">
  <advance width="684"/>
  <unicode hex="20AC"/>
  <outline>
    <contour>
      <point x="427" y="-8" type="curve" smooth="yes"/>
      <point x="479" y="-8"/>
      <point x="512" y="2"/>
      <point x="541" y="12" type="curve" smooth="yes"/>
      <point x="565" y="20"/>
      <point x="592" y="29"/>
      <point x="621" y="29" type="curve" smooth="yes"/>
      <point x="628" y="29" type="line"/>
      <point x="629" y="92"/>
      <point x="640" y="160"/>
      <point x="659" y="224" type="curve"/>
      <point x="621" y="224" type="line"/>
      <point x="589" y="114"/>
      <point x="527" y="26"/>
      <point x="435" y="26" type="curve" smooth="yes"/>
      <point x="317" y="26"/>
      <point x="248" y="149"/>
      <point x="248" y="329" type="curve" smooth="yes"/>
      <point x="248" y="523"/>
      <point x="331" y="648"/>
      <point x="435" y="648" type="curve" smooth="yes"/>
      <point x="540" y="648"/>
      <point x="586" y="562"/>
      <point x="620" y="451" type="curve"/>
      <point x="655" y="451" type="line"/>
      <point x="645" y="495"/>
      <point x="636" y="541"/>
      <point x="636" y="584" type="curve" smooth="yes"/>
      <point x="636" y="604"/>
      <point x="638" y="623"/>
      <point x="643" y="641" type="curve"/>
      <point x="639" y="644" type="line"/>
      <point x="626" y="641"/>
      <point x="615" y="639"/>
      <point x="600" y="639" type="curve" smooth="yes"/>
      <point x="549" y="639"/>
      <point x="515" y="684"/>
      <point x="401" y="684" type="curve" smooth="yes"/>
      <point x="242" y="684"/>
      <point x="96" y="542"/>
      <point x="96" y="329" type="curve" smooth="yes"/>
      <point x="96" y="141"/>
      <point x="233" y="-8"/>
    </contour>
    <contour>
      <point x="10" y="383" type="line"/>
      <point x="452" y="383" type="line"/>
      <point x="452" y="419" type="line"/>
      <point x="10" y="419" type="line"/>
    </contour>
    <contour>
      <point x="10" y="251" type="line"/>
      <point x="452" y="251" type="line"/>
      <point x="452" y="287" type="line"/>
      <point x="10" y="287" type="line"/>
    </contour>
  </outline>
</glyph>
<glyph name="summation" format="1">
  <advance width="597"/>
  <unicode hex="2211"/>
  <outline>
    <contour>
      <point x="10" y="-107" type="line"/>
      <point x="534" y="-107" type="line"/>
      <point x="567" y="138" type="line"/>
      <point x="545" y="138" type="line"/>
      <point x="533" y="87" type="line" smooth="yes"/>
      <point x="522" y="41"/>
      <point x="513" y="33"/>
      <point x="471" y="33" type="curve" smooth="yes"/>
      <point x="113" y="33" type="line"/>
      <point x="342" y="369" type="line"/>
      <point x="173" y="671" type="line"/>
      <point x="457" y="671" type="line" smooth="yes"/>
      <point x="499" y="671"/>
      <point x="508" y="663"/>
      <point x="519" y="617" type="curve" smooth="yes"/>
      <point x="531" y="566" type="line"/>
      <point x="553" y="566" type="line"/>
      <point x="534" y="711" type="line"/>
      <point x="10" y="711" type="line"/>
      <point x="10" y="674" type="line"/>
      <point x="230" y="281" type="line"/>
      <point x="10" y="-41" type="line"/>
    </contour>
  </outline>
</glyph>
<glyph name="minus" format="1">
  <advance width="570"/>
  <unicode hex="2212"/>
  <outline>
    <contour>
      <point x="76" y="304" type="line"/>
      <point x="494" y="304" type="line"/>
      <point x="494" y="361" type="line"/>
      <point x="76" y="361" type="line"/>
    </contour>
  </outline>
</glyph>
<glyph name="f_f" format="1">
  <advance width="638"/>
  <unicode hex="FB00"/>
  <outline>
    <contour>
      <point x="30" y="0" type="line"/>
      <point x="282" y="0" type="line"/>
      <point x="282" y="17" type="line"/>
      <point x="239" y="29" type="line" smooth="yes"/>
      <point x="216" y="35"/>
      <point x="207" y="47"/>
      <point x="207" y="62" type="curve" smooth="yes"/>
      <point x="207" y="409" type="line"/>
      <point x="424" y="409" type="line"/>
      <point x="458" y="442" type="line"/>
      <point x="207" y="442" type="line"/>
      <point x="207" y="489" type="line" smooth="yes"/>
      <point x="207" y="591"/>
      <point x="236" y="661"/>
      <point x="320" y="661" type="curve" smooth="yes"/>
      <point x="363" y="661"/>
      <point x="402" y="636"/>
      <point x="418" y="597" type="curve"/>
      <point x="488" y="628" type="line"/>
      <point x="462" y="659"/>
      <point x="398" y="691"/>
      <point x="329" y="691" type="curve" smooth="yes"/>
      <point x="163" y="691"/>
      <point x="89" y="605"/>
      <point x="89" y="449" type="curve" smooth="yes"/>
      <point x="89" y="442" type="line"/>
      <point x="25" y="442" type="line"/>
      <point x="25" y="409" type="line"/>
      <point x="89" y="409" type="line"/>
      <point x="89" y="69" type="line" smooth="yes"/>
      <point x="89" y="48"/>
      <point x="82" y="37"/>
      <point x="62" y="29" type="curve" smooth="yes"/>
      <point x="30" y="17" type="line"/>
    </contour>
    <component base="f" xOffset="282"/>
  </outline>
</glyph>
<glyph name="fl" format="1">
  <advance width="568"/>
  <unicode hex="FB02"/>
  <outline>
    <contour>
      <point x="30" y="0" type="line"/>
      <point x="282" y="0" type="line"/>
      <point x="282" y="17" type="line"/>
      <point x="239" y="29" type="line" smooth="yes"/>
      <point x="216" y="35"/>
      <point x="207" y="47"/>
      <point x="207" y="62" type="curve" smooth="yes"/>
      <point x="207" y="409" type="line"/>
      <point x="312" y="409" type="line"/>
      <point x="322" y="442" type="line"/>
      <point x="207" y="442" type="line"/>
      <point x="207" y="477" type="line" smooth="yes"/>
      <point x="207" y="566"/>
      <point x="227" y="684"/>
      <point x="315" y="684" type="curve" smooth="yes"/>
      <point x="362" y="684"/>
      <point x="377" y="657"/>
      <point x="377" y="606" type="curve" smooth="yes"/>
      <point x="377" y="69" type="line" smooth="yes"/>
      <point x="377" y="50"/>
      <point x="368" y="36"/>
      <point x="350" y="29" type="curve" smooth="yes"/>
      <point x="318" y="17" type="line"/>
      <point x="318" y="0" type="line"/>
      <point x="553" y="0" type="line"/>
      <point x="553" y="17" type="line"/>
      <point x="521" y="29" type="line" smooth="yes"/>
      <point x="510" y="33"/>
      <point x="494" y="43"/>
      <point x="494" y="62" type="curve" smooth="yes"/>
      <point x="494" y="582" type="line" smooth="yes"/>
      <point x="494" y="678"/>
      <point x="434" y="711"/>
      <point x="345" y="711" type="curve" smooth="yes"/>
      <point x="203" y="711"/>
      <point x="89" y="631"/>
      <point x="89" y="467" type="curve" smooth="yes"/>
      <point x="89" y="442" type="line"/>
      <point x="25" y="442" type="line"/>
      <point x="25" y="409" type="line"/>
      <point x="89" y="409" type="line"/>
      <point x="89" y="69" type="line" smooth="yes"/>
      <point x="89" y="48"/>
      <point x="82" y="37"/>
      <point x="62" y="29" type="curve" smooth="yes"/>
      <point x="30" y="17" type="line"/>
    </contour>
  </outline>
</glyph>
<glyph name="s_t" format="1">
  <advance width="769"/>
  <unicode hex="FB06"/>
  <outline>
    <contour>
      <point x="496" y="349" type="line"/>
      <point x="611" y="408" type="line"/>
      <point x="611" y="525" type="line"/>
      <point x="611" y="660"/>
      <point x="507" y="713"/>
      <point x="372" y="713" type="curve" smooth="yes"/>
      <point x="245" y="713"/>
      <point x="130" y="661"/>
      <point x="130" y="555" type="curve" smooth="yes"/>
      <point x="130" y="480"/>
      <point x="212" y="447"/>
      <point x="292" y="426" type="curve"/>
      <point x="316" y="428" type="line"/>
      <point x="277" y="450"/>
      <point x="242" y="475"/>
      <point x="242" y="542" type="curve" smooth="yes"/>
      <point x="242" y="646"/>
      <point x="295" y="691"/>
      <point x="373" y="691" type="curve" smooth="yes"/>
      <point x="467" y="691"/>
      <point x="496" y="628"/>
      <point x="496" y="525" type="curve" smooth="yes"/>
    </contour>
    <component base="s"/>
    <component base="t" xOffset="411"/>
  </outline>
</glyph>
<glyph name="acutecomb.case" format="1">
  <advance width="570"/>
  <outline>
    <component base="acute" xScale="0.927" xyScale="-0.375" yScale="0.927" yxScale="0.375" xOffset="-215" yOffset="307"/>
    <contour>
      <point x="239" y="690" type="move" name="_topcase"/>
    </contour>
  </outline>
</glyph>
<glyph name="ae.sc" format="1">
  <advance width="860"/>
  <outline>
    <contour>
      <point x="16" y="0" type="line"/>
      <point x="240" y="0" type="line"/>
      <point x="240" y="19" type="line"/>
      <point x="166" y="32" type="line" smooth="yes"/>
      <point x="148" y="35"/>
      <point x="140" y="46"/>
      <point x="150" y="61" type="curve" smooth="yes"/>
      <point x="412" y="452" type="line"/>
      <point x="409" y="501" type="line"/>
      <point x="104" y="51" type="line" smooth="yes"/>
      <point x="96" y="39"/>
      <point x="90" y="36"/>
      <point x="68" y="31" type="curve" smooth="yes"/>
      <point x="16" y="18" type="line"/>
    </contour>
    <contour>
      <point x="224" y="188" type="line"/>
      <point x="426" y="188" type="line"/>
      <point x="426" y="215" type="line"/>
      <point x="247" y="215" type="line"/>
    </contour>
    <component base="e.sc" xOffset="281"/>
  </outline>
</glyph>
<glyph name="b.sc" format="1">
  <advance width="636"/>
  <outline>
    <contour>
      <point x="36" y="0" type="line"/>
      <point x="341" y="0" type="line" smooth="yes"/>
      <point x="474" y="0"/>
      <point x="584" y="41"/>
      <point x="584" y="168" type="curve" smooth="yes"/>
      <point x="584" y="249"/>
      <point x="507" y="304"/>
      <point x="423" y="307" type="curve"/>
      <point x="423" y="309" type="line"/>
      <point x="502" y="318"/>
      <point x="553" y="355"/>
      <point x="553" y="424" type="curve" smooth="yes"/>
      <point x="553" y="501"/>
      <point x="475" y="552"/>
      <point x="358" y="552" type="curve" smooth="yes"/>
      <point x="36" y="552" type="line"/>
      <point x="36" y="533" type="line"/>
      <point x="77" y="524" type="line" smooth="yes"/>
      <point x="115" y="516"/>
      <point x="121" y="510"/>
      <point x="121" y="476" type="curve" smooth="yes"/>
      <point x="121" y="76" type="line" smooth="yes"/>
      <point x="121" y="42"/>
      <point x="115" y="36"/>
      <point x="77" y="28" type="curve" smooth="yes"/>
      <point x="36" y="19" type="line"/>
    </contour>
    <contour>
      <point x="297" y="29" type="line" smooth="yes"/>
      <point x="262" y="29"/>
      <point x="250" y="36"/>
      <point x="250" y="72" type="curve" smooth="yes"/>
      <point x="250" y="289" type="line"/>
      <point x="317" y="289" type="line" smooth="yes"/>
      <point x="406" y="289"/>
      <point x="437" y="248"/>
      <point x="437" y="169" type="curve" smooth="yes"/>
      <point x="437" y="87"/>
      <point x="397" y="29"/>
      <point x="321" y="29" type="curve" smooth="yes"/>
    </contour>
    <contour>
      <point x="250" y="317" type="line"/>
      <point x="250" y="523" type="line"/>
      <point x="302" y="523" type="line" smooth="yes"/>
      <point x="371" y="523"/>
      <point x="412" y="482"/>
      <point x="412" y="424" type="curve" smooth="yes"/>
      <point x="412" y="366"/>
      <point x="379" y="317"/>
      <point x="323" y="317" type="curve" smooth="yes"/>
    </contour>
  </outline>
</glyph>
<glyph name="c.sc" format="1">
  <advance width="653"/>
  <outline>
    <contour>
      <point x="388" y="-5" type="curve" smooth="yes"/>
      <point x="449" y="-5"/>
      <point x="480" y="3"/>
      <point x="510" y="11" type="curve" smooth="yes"/>
      <point x="533" y="17"/>
      <point x="561" y="25"/>
      <point x="593" y="25" type="curve" smooth="yes"/>
      <point x="598" y="25" type="line"/>
      <point x="599" y="79"/>
      <point x="608" y="136"/>
      <point x="625" y="188" type="curve"/>
      <point x="597" y="188" type="line"/>
      <point x="563" y="112"/>
      <point x="502" y="25"/>
      <point x="384" y="25" type="curve" smooth="yes"/>
      <point x="262" y="25"/>
      <point x="185" y="122"/>
      <point x="185" y="268" type="curve" smooth="yes"/>
      <point x="185" y="429"/>
      <point x="271" y="530"/>
      <point x="380" y="530" type="curve" smooth="yes"/>
      <point x="483" y="530"/>
      <point x="544" y="468"/>
      <point x="589" y="366" type="curve"/>
      <point x="613" y="366" type="line"/>
      <point x="603" y="414"/>
      <point x="589" y="469"/>
      <point x="603" y="522" type="curve"/>
      <point x="600" y="524" type="line"/>
      <point x="589" y="522"/>
      <point x="580" y="520"/>
      <point x="567" y="520" type="curve" smooth="yes"/>
      <point x="541" y="520"/>
      <point x="526" y="529"/>
      <point x="505" y="538" type="curve" smooth="yes"/>
      <point x="481" y="549"/>
      <point x="450" y="561"/>
      <point x="385" y="561" type="curve" smooth="yes"/>
      <point x="186" y="561"/>
      <point x="45" y="434"/>
      <point x="45" y="268" type="curve" smooth="yes"/>
      <point x="45" y="116"/>
      <point x="187" y="-5"/>
    </contour>
    <contour>
      <point x="398" y="-41" type="move" name="bottom"/>
    </contour>
    <contour>
      <point x="383" y="566" type="move" name="top"/>
    </contour>
  </outline>
</glyph>
<glyph name="caroncomb.case" format="1">
  <advance width="570"/>
  <outline>
    <contour>
      <point x="264" y="710" type="line"/>
      <point x="306" y="710" type="line"/>
      <point x="441" y="855" type="line"/>
      <point x="426" y="877" type="line"/>
      <point x="285" y="801" type="line"/>
      <point x="144" y="877" type="line"/>
      <point x="129" y="855" type="line"/>
    </contour>
    <contour>
      <point x="285" y="690" type="move" name="_topcase"/>
    </contour>
  </outline>
</glyph>
<glyph name="circumflexcomb.case" format="1">
  <advance width="570"/>
  <outline>
    <component base="caroncomb.case" yScale="-1" yOffset="1587"/>
    <contour>
      <point x="285" y="690" type="move" name="_topcase"/>
    </contour>
  </outline>
</glyph>
<glyph name="dieresiscomb.case" format="1">
  <advance width="570"/>
  <outline>
    <component base="dieresiscomb" yOffset="177"/>
    <contour>
      <point x="285" y="690" type="move" name="_topcase"/>
    </contour>
  </outline>
</glyph>
<glyph name="dotaccentcomb.case" format="1">
  <advance width="570"/>
  <outline>
    <component base="dotaccent" yOffset="175"/>
    <contour>
      <point x="285" y="690" type="move" name="_topcase"/>
    </contour>
  </outline>
</glyph>
<glyph name="eight.onum" format="1">
  <advance width="577"/>
  <outline>
    <contour>
      <point x="281" y="-8" type="curve" smooth="yes"/>
      <point x="418" y="-8"/>
      <point x="522" y="71"/>
      <point x="522" y="185" type="curve" smooth="yes"/>
      <point x="522" y="294"/>
      <point x="418" y="356"/>
      <point x="328" y="406" type="curve" smooth="yes"/>
      <point x="260" y="444"/>
      <point x="196" y="496"/>
      <point x="196" y="555" type="curve" smooth="yes"/>
      <point x="196" y="626"/>
      <point x="246" y="654"/>
      <point x="288" y="654" type="curve" smooth="yes"/>
      <point x="348" y="654"/>
      <point x="379" y="611"/>
      <point x="379" y="541" type="curve" smooth="yes"/>
      <point x="379" y="488"/>
      <point x="358" y="417"/>
      <point x="314" y="380" type="curve"/>
      <point x="337" y="366" type="line"/>
      <point x="424" y="389"/>
      <point x="501" y="455"/>
      <point x="501" y="537" type="curve" smooth="yes"/>
      <point x="501" y="631"/>
      <point x="414" y="687"/>
      <point x="304" y="687" type="curve" smooth="yes"/>
      <point x="150" y="687"/>
      <point x="77" y="609"/>
      <point x="77" y="517" type="curve" smooth="yes"/>
      <point x="77" y="415"/>
      <point x="171" y="361"/>
      <point x="259" y="310" type="curve" smooth="yes"/>
      <point x="327" y="270"/>
      <point x="394" y="228"/>
      <point x="394" y="148" type="curve" smooth="yes"/>
      <point x="394" y="74"/>
      <point x="371" y="24"/>
      <point x="300" y="24" type="curve" smooth="yes"/>
      <point x="235" y="24"/>
      <point x="183" y="88"/>
      <point x="183" y="184" type="curve" smooth="yes"/>
      <point x="183" y="241"/>
      <point x="207" y="303"/>
      <point x="264" y="337" type="curve"/>
      <point x="238" y="361" type="line"/>
      <point x="150" y="334"/>
      <point x="55" y="258"/>
      <point x="55" y="162" type="curve" smooth="yes"/>
      <point x="55" y="53"/>
      <point x="160" y="-8"/>
    </contour>
  </outline>
</glyph>
<glyph name="eth.sc" format="1">
  <advance width="688"/>
  <outline>
    <contour>
      <point x="36" y="265" type="line"/>
      <point x="343" y="265" type="line"/>
      <point x="343" y="315" type="line"/>
      <point x="36" y="315" type="line"/>
    </contour>
    <component base="d.sc"/>
  </outline>
</glyph>
<glyph name="f_b" format="1">
  <advance width="856"/>
  <outline>
    <contour>
      <point x="398" y="-12" type="line"/>
      <point x="412" y="11"/>
      <point x="426" y="31"/>
      <point x="442" y="48" type="curve"/>
      <point x="477" y="16"/>
      <point x="537" y="-9"/>
      <point x="594" y="-9" type="curve" smooth="yes"/>
      <point x="756" y="-9"/>
      <point x="831" y="112"/>
      <point x="831" y="229" type="curve" smooth="yes"/>
      <point x="831" y="345"/>
      <point x="762" y="450"/>
      <point x="612" y="450" type="curve" smooth="yes"/>
      <point x="599" y="450"/>
      <point x="583" y="444"/>
      <point x="574" y="439" type="curve" smooth="yes"/>
      <point x="494" y="394" type="line"/>
      <point x="494" y="582" type="line" smooth="yes"/>
      <point x="494" y="678"/>
      <point x="434" y="711"/>
      <point x="345" y="711" type="curve" smooth="yes"/>
      <point x="203" y="711"/>
      <point x="89" y="631"/>
      <point x="89" y="467" type="curve" smooth="yes"/>
      <point x="89" y="442" type="line"/>
      <point x="25" y="442" type="line"/>
      <point x="25" y="409" type="line"/>
      <point x="89" y="409" type="line"/>
      <point x="89" y="69" type="line" smooth="yes"/>
      <point x="89" y="48"/>
      <point x="82" y="37"/>
      <point x="62" y="29" type="curve" smooth="yes"/>
      <point x="30" y="17" type="line"/>
      <point x="30" y="0" type="line"/>
      <point x="282" y="0" type="line"/>
      <point x="282" y="17" type="line"/>
      <point x="239" y="29" type="line" smooth="yes"/>
      <point x="216" y="35"/>
      <point x="207" y="47"/>
      <point x="207" y="62" type="curve" smooth="yes"/>
      <point x="207" y="409" type="line"/>
      <point x="312" y="409" type="line"/>
      <point x="322" y="442" type="line"/>
      <point x="207" y="442" type="line"/>
      <point x="207" y="477" type="line" smooth="yes"/>
      <point x="207" y="566"/>
      <point x="227" y="684"/>
      <point x="315" y="684" type="curve" smooth="yes"/>
      <point x="362" y="684"/>
      <point x="377" y="657"/>
      <point x="377" y="606" type="curve" smooth="yes"/>
      <point x="377" y="-9" type="line"/>
    </contour>
    <contour>
      <point x="594" y="26" type="curve" smooth="yes"/>
      <point x="541" y="26"/>
      <point x="494" y="85"/>
      <point x="494" y="155" type="curve" smooth="yes"/>
      <point x="494" y="292" type="line" smooth="yes"/>
      <point x="494" y="339"/>
      <point x="526" y="379"/>
      <point x="580" y="379" type="curve" smooth="yes"/>
      <point x="665" y="379"/>
      <point x="703" y="288"/>
      <point x="703" y="191" type="curve" smooth="yes"/>
      <point x="703" y="106"/>
      <point x="669" y="26"/>
    </contour>
  </outline>
</glyph>
<glyph name="f_h" format="1">
  <advance width="858"/>
  <outline>
    <contour>
      <point x="30" y="0" type="line"/>
      <point x="282" y="0" type="line"/>
      <point x="282" y="17" type="line"/>
      <point x="239" y="29" type="line" smooth="yes"/>
      <point x="216" y="35"/>
      <point x="207" y="47"/>
      <point x="207" y="62" type="curve" smooth="yes"/>
      <point x="207" y="409" type="line"/>
      <point x="312" y="409" type="line"/>
      <point x="322" y="442" type="line"/>
      <point x="207" y="442" type="line"/>
      <point x="207" y="477" type="line" smooth="yes"/>
      <point x="207" y="566"/>
      <point x="227" y="684"/>
      <point x="315" y="684" type="curve" smooth="yes"/>
      <point x="362" y="684"/>
      <point x="377" y="657"/>
      <point x="377" y="606" type="curve" smooth="yes"/>
      <point x="377" y="69" type="line" smooth="yes"/>
      <point x="377" y="50"/>
      <point x="368" y="36"/>
      <point x="350" y="29" type="curve" smooth="yes"/>
      <point x="318" y="17" type="line"/>
      <point x="318" y="0" type="line"/>
      <point x="553" y="0" type="line"/>
      <point x="553" y="17" type="line"/>
      <point x="521" y="29" type="line" smooth="yes"/>
      <point x="510" y="33"/>
      <point x="494" y="43"/>
      <point x="494" y="62" type="curve" smooth="yes"/>
      <point x="494" y="582" type="line" smooth="yes"/>
      <point x="494" y="678"/>
      <point x="434" y="711"/>
      <point x="345" y="711" type="curve" smooth="yes"/>
      <point x="203" y="711"/>
      <point x="89" y="631"/>
      <point x="89" y="467" type="curve" smooth="yes"/>
      <point x="89" y="442" type="line"/>
      <point x="25" y="442" type="line"/>
      <point x="25" y="409" type="line"/>
      <point x="89" y="409" type="line"/>
      <point x="89" y="69" type="line" smooth="yes"/>
      <point x="89" y="48"/>
      <point x="82" y="37"/>
      <point x="62" y="29" type="curve" smooth="yes"/>
      <point x="30" y="17" type="line"/>
    </contour>
    <contour>
      <point x="613" y="0" type="line"/>
      <point x="848" y="0" type="line"/>
      <point x="848" y="17" type="line"/>
      <point x="816" y="29" type="line" smooth="yes"/>
      <point x="805" y="33"/>
      <point x="789" y="43"/>
      <point x="789" y="62" type="curve" smooth="yes"/>
      <point x="789" y="312" type="line" smooth="yes"/>
      <point x="789" y="402"/>
      <point x="734" y="451"/>
      <point x="640" y="451" type="curve" smooth="yes"/>
      <point x="636" y="451"/>
      <point x="630" y="450"/>
      <point x="624" y="446" type="curve" smooth="yes"/>
      <point x="587" y="422"/>
      <point x="536" y="391"/>
      <point x="493" y="375" type="curve"/>
      <point x="479" y="375" type="line"/>
      <point x="494" y="282" type="line"/>
      <point x="494" y="337"/>
      <point x="527" y="374"/>
      <point x="584" y="374" type="curve" smooth="yes"/>
      <point x="640" y="374"/>
      <point x="672" y="341"/>
      <point x="672" y="282" type="curve" smooth="yes"/>
      <point x="672" y="69" type="line" smooth="yes"/>
      <point x="672" y="50"/>
      <point x="663" y="36"/>
      <point x="645" y="29" type="curve" smooth="yes"/>
      <point x="613" y="17" type="line"/>
    </contour>
  </outline>
</glyph>
<glyph name="gravecomb.case" format="1">
  <advance width="570"/>
  <outline>
    <component base="acutecomb.case" xScale="-1" xOffset="569"/>
    <contour>
      <point x="305" y="690" type="move" name="_topcase"/>
    </contour>
  </outline>
</glyph>
<glyph name="hbar.sc" format="1">
  <advance width="776"/>
  <outline>
    <contour>
      <point x="67" y="390" type="line"/>
      <point x="710" y="390" type="line"/>
      <point x="710" y="438" type="line"/>
      <point x="67" y="438" type="line"/>
    </contour>
    <component base="h.sc"/>
  </outline>
</glyph>
<glyph name="hungarumlautcomb.case" format="1">
  <advance width="600"/>
  <outline>
    <component base="acute" xScale="0.961" xyScale="-0.276" yScale="0.961" yxScale="0.276" xOffset="-35" yOffset="242"/>
    <component base="acute" xScale="0.961" xyScale="-0.276" yScale="0.961" yxScale="0.276" xOffset="-259" yOffset="242"/>
    <contour>
      <point x="272" y="690" type="move" name="_topcase"/>
    </contour>
  </outline>
</glyph>
<glyph name="i.sc" format="1">
  <advance width="371"/>
  <outline>
    <contour>
      <point x="36" y="0" type="line"/>
      <point x="335" y="0" type="line"/>
      <point x="335" y="19" type="line"/>
      <point x="294" y="28" type="line" smooth="yes"/>
      <point x="257" y="36"/>
      <point x="250" y="42"/>
      <point x="250" y="76" type="curve" smooth="yes"/>
      <point x="250" y="476" type="line" smooth="yes"/>
      <point x="250" y="510"/>
      <point x="257" y="516"/>
      <point x="294" y="524" type="curve" smooth="yes"/>
      <point x="335" y="533" type="line"/>
      <point x="335" y="552" type="line"/>
      <point x="36" y="552" type="line"/>
      <point x="36" y="533" type="line"/>
      <point x="77" y="524" type="line" smooth="yes"/>
      <point x="115" y="516"/>
      <point x="121" y="510"/>
      <point x="121" y="476" type="curve" smooth="yes"/>
      <point x="121" y="76" type="line" smooth="yes"/>
      <point x="121" y="42"/>
      <point x="115" y="36"/>
      <point x="77" y="28" type="curve" smooth="yes"/>
      <point x="36" y="19" type="line"/>
    </contour>
    <contour>
      <point x="186" y="566" type="move" name="top"/>
    </contour>
  </outline>
</glyph>
<glyph name="j.sc" format="1">
  <advance width="385"/>
  <outline>
    <contour>
      <point x="74" y="-177" type="curve" smooth="yes"/>
      <point x="154" y="-177"/>
      <point x="190" y="-149"/>
      <point x="220" y="-104" type="curve" smooth="yes"/>
      <point x="234" y="-84"/>
      <point x="243" y="-67"/>
      <point x="263" y="-67" type="curve" smooth="yes"/>
      <point x="271" y="-67" type="line"/>
      <point x="271" y="476" type="line" smooth="yes"/>
      <point x="271" y="510"/>
      <point x="278" y="516"/>
      <point x="315" y="524" type="curve" smooth="yes"/>
      <point x="356" y="533" type="line"/>
      <point x="357" y="552" type="line"/>
      <point x="57" y="552" type="line"/>
      <point x="57" y="533" type="line"/>
      <point x="98" y="524" type="line" smooth="yes"/>
      <point x="136" y="516"/>
      <point x="143" y="510"/>
      <point x="143" y="476" type="curve" smooth="yes"/>
      <point x="143" y="-54" type="line" smooth="yes"/>
      <point x="143" y="-121"/>
      <point x="110" y="-144"/>
      <point x="69" y="-144" type="curve" smooth="yes"/>
      <point x="49" y="-144"/>
      <point x="34" y="-136"/>
      <point x="34" y="-131" type="curve" smooth="yes"/>
      <point x="34" y="-128"/>
      <point x="37" y="-127"/>
      <point x="40" y="-127" type="curve" smooth="yes"/>
      <point x="72" y="-127"/>
      <point x="95" y="-99"/>
      <point x="95" y="-72" type="curve" smooth="yes"/>
      <point x="95" y="-41"/>
      <point x="78" y="-12"/>
      <point x="32" y="-12" type="curve" smooth="yes"/>
      <point x="-5" y="-12"/>
      <point x="-40" y="-37"/>
      <point x="-40" y="-87" type="curve" smooth="yes"/>
      <point x="-40" y="-126"/>
      <point x="10" y="-177"/>
    </contour>
    <contour>
      <point x="210" y="566" type="move" name="top"/>
    </contour>
  </outline>
</glyph>
<glyph name="lslash.sc" format="1">
  <advance width="619"/>
  <outline>
    <contour>
      <point x="36" y="169" type="line"/>
      <point x="483" y="305" type="line"/>
      <point x="483" y="354" type="line"/>
      <point x="36" y="218" type="line"/>
    </contour>
    <component base="l.sc"/>
  </outline>
</glyph>
<glyph name="macroncomb.case" format="1">
  <advance width="600"/>
  <outline>
    <component base="macroncomb" yOffset="193"/>
    <contour>
      <point x="284" y="690" type="move" name="_topcase"/>
    </contour>
  </outline>
</glyph>
<glyph name="o.sc" format="1">
  <advance width="699"/>
  <outline>
    <contour>
      <point x="349" y="-9" type="curve" smooth="yes"/>
      <point x="526" y="-9"/>
      <point x="654" y="115"/>
      <point x="654" y="281" type="curve" smooth="yes"/>
      <point x="654" y="435"/>
      <point x="526" y="561"/>
      <point x="349" y="561" type="curve" smooth="yes"/>
      <point x="172" y="561"/>
      <point x="45" y="437"/>
      <point x="45" y="270" type="curve" smooth="yes"/>
      <point x="45" y="116"/>
      <point x="172" y="-9"/>
    </contour>
    <contour>
      <point x="349" y="22" type="curve" smooth="yes"/>
      <point x="250" y="22"/>
      <point x="185" y="121"/>
      <point x="185" y="270" type="curve" smooth="yes"/>
      <point x="185" y="432"/>
      <point x="250" y="530"/>
      <point x="349" y="530" type="curve" smooth="yes"/>
      <point x="450" y="530"/>
      <point x="514" y="431"/>
      <point x="514" y="280" type="curve" smooth="yes"/>
      <point x="514" y="120"/>
      <point x="450" y="22"/>
    </contour>
    <contour>
      <point x="353" y="566" type="move" name="top"/>
    </contour>
  </outline>
</glyph>
<glyph name="oe.sc" format="1">
  <advance width="958"/>
  <outline>
    <contour>
      <point x="349" y="-9" type="curve" smooth="yes"/>
      <point x="446" y="-9"/>
      <point x="527" y="28"/>
      <point x="583" y="88" type="curve"/>
      <point x="521" y="231" type="line"/>
      <point x="506" y="101"/>
      <point x="441" y="22"/>
      <point x="349" y="22" type="curve" smooth="yes"/>
      <point x="250" y="22"/>
      <point x="185" y="121"/>
      <point x="185" y="270" type="curve" smooth="yes"/>
      <point x="185" y="432"/>
      <point x="250" y="530"/>
      <point x="349" y="530" type="curve" smooth="yes"/>
      <point x="437" y="530"/>
      <point x="499" y="457"/>
      <point x="517" y="343" type="curve"/>
      <point x="588" y="460" type="line"/>
      <point x="532" y="521"/>
      <point x="448" y="561"/>
      <point x="349" y="561" type="curve" smooth="yes"/>
      <point x="172" y="561"/>
      <point x="45" y="437"/>
      <point x="45" y="270" type="curve" smooth="yes"/>
      <point x="45" y="116"/>
      <point x="172" y="-9"/>
    </contour>
    <contour>
      <point x="392" y="0" type="line"/>
      <point x="901" y="0" type="line"/>
      <point x="901" y="52"/>
      <point x="911" y="100"/>
      <point x="922" y="148" type="curve"/>
      <point x="903" y="148" type="line"/>
      <point x="863" y="96" type="line" smooth="yes"/>
      <point x="827" y="49"/>
      <point x="792" y="29"/>
      <point x="733" y="29" type="curve" smooth="yes"/>
      <point x="674" y="29" type="line" smooth="yes"/>
      <point x="614" y="29"/>
      <point x="617" y="53"/>
      <point x="617" y="104" type="curve" smooth="yes"/>
      <point x="617" y="278" type="line"/>
      <point x="722" y="278" type="line" smooth="yes"/>
      <point x="775" y="278"/>
      <point x="797" y="255"/>
      <point x="804" y="218" type="curve" smooth="yes"/>
      <point x="811" y="178" type="line"/>
      <point x="831" y="178" type="line"/>
      <point x="831" y="405" type="line"/>
      <point x="811" y="405" type="line"/>
      <point x="805" y="368" type="line" smooth="yes"/>
      <point x="799" y="330"/>
      <point x="776" y="306"/>
      <point x="720" y="306" type="curve" smooth="yes"/>
      <point x="617" y="306" type="line"/>
      <point x="617" y="523" type="line"/>
      <point x="722" y="523" type="line" smooth="yes"/>
      <point x="795" y="523"/>
      <point x="852" y="470"/>
      <point x="880" y="407" type="curve"/>
      <point x="899" y="407" type="line"/>
      <point x="893" y="445"/>
      <point x="887" y="475"/>
      <point x="887" y="507" type="curve" smooth="yes"/>
      <point x="887" y="522"/>
      <point x="887" y="536"/>
      <point x="891" y="552" type="curve"/>
      <point x="395" y="552" type="line"/>
      <point x="488" y="508" type="line"/>
      <point x="489" y="45" type="line"/>
    </contour>
    <contour>
      <point x="1034" y="566" type="move" name="topcase"/>
    </contour>
  </outline>
</glyph>
<glyph name="one.onum" format="1">
  <advance width="375"/>
  <outline>
    <contour>
      <point x="30" y="0" type="line"/>
      <point x="345" y="0" type="line"/>
      <point x="345" y="21" type="line"/>
      <point x="297" y="31" type="line" smooth="yes"/>
      <point x="253" y="41"/>
      <point x="246" y="53"/>
      <point x="246" y="92" type="curve" smooth="yes"/>
      <point x="246" y="349" type="line" smooth="yes"/>
      <point x="246" y="389"/>
      <point x="253" y="401"/>
      <point x="297" y="410" type="curve" smooth="yes"/>
      <point x="345" y="421" type="line"/>
      <point x="345" y="442" type="line"/>
      <point x="30" y="442" type="line"/>
      <point x="30" y="421" type="line"/>
      <point x="78" y="410" type="line" smooth="yes"/>
      <point x="122" y="401"/>
      <point x="129" y="389"/>
      <point x="129" y="349" type="curve" smooth="yes"/>
      <point x="129" y="92" type="line" smooth="yes"/>
      <point x="129" y="53"/>
      <point x="122" y="41"/>
      <point x="78" y="31" type="curve" smooth="yes"/>
      <point x="30" y="21" type="line"/>
    </contour>
  </outline>
</glyph>
<glyph name="oslash.sc" format="1">
  <advance width="710"/>
  <outline>
    <contour>
      <point x="79" y="-10" type="line"/>
      <point x="654" y="526" type="line"/>
      <point x="620" y="562" type="line"/>
      <point x="45" y="26" type="line"/>
    </contour>
    <component base="o.sc" xOffset="11"/>
  </outline>
</glyph>
<glyph name="q.sc" format="1">
  <advance width="699"/>
  <outline>
    <contour>
      <point x="467" y="24" type="curve"/>
      <point x="294" y="0" type="line"/>
      <point x="376" y="-83"/>
      <point x="489" y="-123"/>
      <point x="624" y="-123" type="curve" smooth="yes"/>
      <point x="678" y="-123"/>
      <point x="722" y="-119"/>
      <point x="764" y="-110" type="curve"/>
      <point x="758" y="-93" type="line"/>
      <point x="643" y="-93"/>
      <point x="508" y="-37"/>
    </contour>
    <component base="o.sc"/>
  </outline>
</glyph>
<glyph name="ringcomb.case" format="1">
  <advance width="570"/>
  <outline>
    <contour>
      <point x="183" y="787" type="curve" smooth="yes"/>
      <point x="183" y="731"/>
      <point x="229" y="685"/>
      <point x="285" y="685" type="curve" smooth="yes"/>
      <point x="341" y="685"/>
      <point x="387" y="731"/>
      <point x="387" y="787" type="curve" smooth="yes"/>
      <point x="387" y="843"/>
      <point x="341" y="888"/>
      <point x="285" y="888" type="curve" smooth="yes"/>
      <point x="229" y="888"/>
      <point x="183" y="843"/>
    </contour>
    <contour>
      <point x="222" y="787" type="curve" smooth="yes"/>
      <point x="222" y="821"/>
      <point x="251" y="850"/>
      <point x="286" y="850" type="curve" smooth="yes"/>
      <point x="320" y="850"/>
      <point x="348" y="821"/>
      <point x="348" y="787" type="curve" smooth="yes"/>
      <point x="348" y="752"/>
      <point x="320" y="724"/>
      <point x="286" y="724" type="curve" smooth="yes"/>
      <point x="251" y="724"/>
      <point x="222" y="752"/>
    </contour>
    <contour>
      <point x="285" y="690" type="move" name="_topcase"/>
    </contour>
  </outline>
</glyph>
<glyph name="six.onum" format="1">
  <advance width="516"/>
  <outline>
    <contour>
      <point x="263" y="-9" type="curve" smooth="yes"/>
      <point x="387" y="-9"/>
      <point x="491" y="69"/>
      <point x="491" y="216" type="curve" smooth="yes"/>
      <point x="491" y="318"/>
      <point x="425" y="423"/>
      <point x="293" y="423" type="curve" smooth="yes"/>
      <point x="207" y="423"/>
      <point x="148" y="365"/>
      <point x="138" y="301" type="curve"/>
      <point x="165" y="201" type="line"/>
      <point x="165" y="301"/>
      <point x="197" y="374"/>
      <point x="274" y="374" type="curve" smooth="yes"/>
      <point x="338" y="374"/>
      <point x="363" y="317"/>
      <point x="363" y="215" type="curve" smooth="yes"/>
      <point x="363" y="94"/>
      <point x="332" y="23"/>
      <point x="264" y="23" type="curve" smooth="yes"/>
      <point x="208" y="23"/>
      <point x="163" y="101"/>
      <point x="163" y="256" type="curve" smooth="yes"/>
      <point x="163" y="442"/>
      <point x="205" y="641"/>
      <point x="432" y="661" type="curve"/>
      <point x="430" y="683" type="line"/>
      <point x="201" y="683"/>
      <point x="35" y="518"/>
      <point x="35" y="262" type="curve" smooth="yes"/>
      <point x="35" y="86"/>
      <point x="124" y="-9"/>
    </contour>
  </outline>
</glyph>
<glyph name="tbar.sc" format="1">
  <advance width="625"/>
  <outline>
    <contour>
      <point x="150" y="254" type="line"/>
      <point x="476" y="254" type="line"/>
      <point x="476" y="302" type="line"/>
      <point x="150" y="302" type="line"/>
    </contour>
    <component base="t.sc"/>
  </outline>
</glyph>
<glyph name="three.onum" format="1">
  <advance width="510"/>
  <outline>
    <contour>
      <point x="207" y="-240" type="curve" smooth="yes"/>
      <point x="361" y="-240"/>
      <point x="470" y="-159"/>
      <point x="470" y="-13" type="curve" smooth="yes"/>
      <point x="470" y="82"/>
      <point x="398" y="162"/>
      <point x="287" y="176" type="curve"/>
      <point x="287" y="178" type="line"/>
      <point x="366" y="208"/>
      <point x="409" y="255"/>
      <point x="409" y="320" type="curve" smooth="yes"/>
      <point x="409" y="409"/>
      <point x="324" y="451"/>
      <point x="214" y="451" type="curve" smooth="yes"/>
      <point x="103" y="451"/>
      <point x="35" y="381"/>
      <point x="35" y="326" type="curve" smooth="yes"/>
      <point x="35" y="289"/>
      <point x="57" y="268"/>
      <point x="88" y="268" type="curve" smooth="yes"/>
      <point x="119" y="268"/>
      <point x="146" y="285"/>
      <point x="146" y="315" type="curve" smooth="yes"/>
      <point x="146" y="334"/>
      <point x="140" y="343"/>
      <point x="135" y="352" type="curve" smooth="yes"/>
      <point x="130" y="360"/>
      <point x="126" y="367"/>
      <point x="126" y="381" type="curve" smooth="yes"/>
      <point x="126" y="394"/>
      <point x="145" y="415"/>
      <point x="189" y="415" type="curve" smooth="yes"/>
      <point x="252" y="415"/>
      <point x="286" y="376"/>
      <point x="286" y="315" type="curve" smooth="yes"/>
      <point x="286" y="237"/>
      <point x="238" y="180"/>
      <point x="147" y="133" type="curve" smooth="yes"/>
      <point x="126" y="122" type="line"/>
      <point x="139" y="100" type="line"/>
      <point x="156" y="105"/>
      <point x="174" y="112"/>
      <point x="193" y="118" type="curve"/>
      <point x="283" y="118"/>
      <point x="342" y="55"/>
      <point x="342" y="-22" type="curve" smooth="yes"/>
      <point x="342" y="-159"/>
      <point x="257" y="-208"/>
      <point x="189" y="-208" type="curve" smooth="yes"/>
      <point x="143" y="-208"/>
      <point x="103" y="-187"/>
      <point x="103" y="-162" type="curve" smooth="yes"/>
      <point x="103" y="-152"/>
      <point x="110" y="-146"/>
      <point x="118" y="-138" type="curve"/>
      <point x="128" y="-129"/>
      <point x="139" y="-117"/>
      <point x="139" y="-93" type="curve" smooth="yes"/>
      <point x="139" y="-66"/>
      <point x="117" y="-44"/>
      <point x="79" y="-44" type="curve" smooth="yes"/>
      <point x="49" y="-44"/>
      <point x="20" y="-65"/>
      <point x="20" y="-107" type="curve" smooth="yes"/>
      <point x="20" y="-190"/>
      <point x="106" y="-240"/>
    </contour>
  </outline>
</glyph>
<glyph name="two.onum" format="1">
  <advance width="491"/>
  <outline>
    <contour>
      <point x="25" y="0" type="line"/>
      <point x="418" y="0" type="line"/>
      <point x="451" y="175" type="line"/>
      <point x="429" y="175" type="line"/>
      <point x="423" y="159" type="line" smooth="yes"/>
      <point x="409" y="122"/>
      <point x="396" y="101"/>
      <point x="361" y="101" type="curve" smooth="yes"/>
      <point x="230" y="101" type="line"/>
      <point x="230" y="104" type="line"/>
      <point x="338" y="152"/>
      <point x="407" y="241"/>
      <point x="407" y="319" type="curve" smooth="yes"/>
      <point x="407" y="408"/>
      <point x="318" y="451"/>
      <point x="214" y="451" type="curve" smooth="yes"/>
      <point x="103" y="451"/>
      <point x="33" y="376"/>
      <point x="33" y="321" type="curve" smooth="yes"/>
      <point x="33" y="284"/>
      <point x="55" y="263"/>
      <point x="86" y="263" type="curve" smooth="yes"/>
      <point x="117" y="263"/>
      <point x="144" y="280"/>
      <point x="144" y="310" type="curve" smooth="yes"/>
      <point x="144" y="325"/>
      <point x="140" y="335"/>
      <point x="134" y="345" type="curve" smooth="yes"/>
      <point x="130" y="354"/>
      <point x="124" y="363"/>
      <point x="124" y="371" type="curve" smooth="yes"/>
      <point x="124" y="398"/>
      <point x="156" y="414"/>
      <point x="189" y="414" type="curve" smooth="yes"/>
      <point x="249" y="414"/>
      <point x="283" y="380"/>
      <point x="283" y="314" type="curve" smooth="yes"/>
      <point x="283" y="179"/>
      <point x="176" y="94"/>
      <point x="25" y="29" type="curve"/>
    </contour>
  </outline>
</glyph>
<glyph name="u.sc" format="1">
  <advance width="669"/>
  <outline>
    <contour>
      <point x="326" y="-9" type="curve" smooth="yes"/>
      <point x="433" y="-9"/>
      <point x="474" y="28"/>
      <point x="501" y="56" type="curve" smooth="yes"/>
      <point x="519" y="75"/>
      <point x="532" y="89"/>
      <point x="548" y="89" type="curve"/>
      <point x="548" y="476" type="line" smooth="yes"/>
      <point x="548" y="505"/>
      <point x="565" y="516"/>
      <point x="592" y="522" type="curve" smooth="yes"/>
      <point x="641" y="533" type="line"/>
      <point x="641" y="552" type="line"/>
      <point x="408" y="552" type="line"/>
      <point x="408" y="533" type="line"/>
      <point x="472" y="520" type="line" smooth="yes"/>
      <point x="499" y="515"/>
      <point x="517" y="502"/>
      <point x="517" y="477" type="curve" smooth="yes"/>
      <point x="517" y="173" type="line" smooth="yes"/>
      <point x="517" y="104"/>
      <point x="458" y="51"/>
      <point x="380" y="51" type="curve" smooth="yes"/>
      <point x="283" y="51"/>
      <point x="237" y="101"/>
      <point x="237" y="178" type="curve" smooth="yes"/>
      <point x="237" y="476" type="line" smooth="yes"/>
      <point x="237" y="510"/>
      <point x="244" y="516"/>
      <point x="281" y="524" type="curve" smooth="yes"/>
      <point x="322" y="533" type="line"/>
      <point x="322" y="552" type="line"/>
      <point x="23" y="552" type="line"/>
      <point x="23" y="533" type="line"/>
      <point x="64" y="524" type="line" smooth="yes"/>
      <point x="102" y="516"/>
      <point x="108" y="510"/>
      <point x="108" y="476" type="curve" smooth="yes"/>
      <point x="108" y="173" type="line" smooth="yes"/>
      <point x="108" y="68"/>
      <point x="218" y="-9"/>
    </contour>
    <contour>
      <point x="367" y="566" type="move" name="top"/>
    </contour>
  </outline>
</glyph>
<glyph name="y.sc" format="1">
  <advance width="668"/>
  <outline>
    <contour>
      <point x="303" y="193" type="line"/>
      <point x="334" y="197" type="line"/>
      <point x="546" y="497" type="line"/>
      <point x="551" y="511"/>
      <point x="563" y="517"/>
      <point x="582" y="521" type="curve" smooth="yes"/>
      <point x="640" y="533" type="line"/>
      <point x="641" y="552" type="line"/>
      <point x="398" y="552" type="line"/>
      <point x="398" y="533" type="line"/>
      <point x="475" y="516" type="line" smooth="yes"/>
      <point x="501" y="510"/>
      <point x="503" y="501"/>
      <point x="495" y="491" type="curve" smooth="yes"/>
      <point x="362" y="310" type="line"/>
      <point x="377" y="310" type="line"/>
      <point x="270" y="481" type="line" smooth="yes"/>
      <point x="255" y="506"/>
      <point x="275" y="518"/>
      <point x="298" y="523" type="curve" smooth="yes"/>
      <point x="341" y="533" type="line"/>
      <point x="342" y="552" type="line"/>
      <point x="27" y="552" type="line"/>
      <point x="27" y="533" type="line"/>
      <point x="76" y="522" type="line" smooth="yes"/>
      <point x="86" y="520"/>
      <point x="96" y="514"/>
      <point x="101" y="506" type="curve" smooth="yes"/>
    </contour>
    <contour>
      <point x="172" y="0" type="line"/>
      <point x="472" y="0" type="line"/>
      <point x="471" y="19" type="line"/>
      <point x="430" y="28" type="line" smooth="yes"/>
      <point x="393" y="36"/>
      <point x="386" y="42"/>
      <point x="386" y="76" type="curve" smooth="yes"/>
      <point x="386" y="301" type="line"/>
      <point x="258" y="295" type="line"/>
      <point x="258" y="76" type="line" smooth="yes"/>
      <point x="258" y="42"/>
      <point x="252" y="36"/>
      <point x="214" y="28" type="curve" smooth="yes"/>
      <point x="172" y="19" type="line"/>
    </contour>
    <contour>
      <point x="364" y="566" type="move" name="top"/>
    </contour>
  </outline>
</glyph>
